<svg xmlns="http://www.w3.org/2000/svg" version="1.0" viewBox="0 0 700 117"><path d="M268.5 1.4c-7.2 2-8.2 3.1-9.3 9.3-.6 3.2-.8 7.1-.5 8.6.3 1.5.1 2.7-.4 2.7-1.4 0-3.3-2.2-3.3-3.8 0-.8-.7-2-1.7-2.7-1.8-1.3-1-3.5 1.3-3.5.8 0 1.4-.9 1.4-2 0-1.7-.3-1.9-1.8-1.1-3.6 1.9-4.3 3.6-3.6 9.5.5 3.7 1.1 5.6 2 5.6.8 0 1.4.7 1.4 1.6 0 1.1-.6 1.4-2 .9-1.7-.5-2-.2-2 2.4 0 3 1.3 4.1 2.5 2.1.8-1.3 3.5-1.3 3.5.1 0 .6-1.3 2.1-3 3.5-1.8 1.6-2.7 3.1-2.3 4 .3.9 0 2-.8 2.6-1 .6-.7.7 1 .3 2.1-.6 2.3-.5 1.8 1.5-.8 2.9.2 8 1.6 8 .6 0 .8-2.5.5-6.8-.6-7.8-.3-9.2 2.3-9.2 1.4 0 1.9-.7 1.9-3 0-1.7.5-3 1-3 .6 0 1 2.2 1 5 0 2.7-.4 5-1 5-.5 0-1-.5-1-1 0-.6-.4-1-.8-1s-.7 5.7-.6 12.6c.1 10.6.4 12.8 1.8 13.6 1.7 1 2.2 4.8.6 4.8-.5 0-1-.5-1-1.2 0-.6-1.1-.1-2.5 1.2-1.3 1.2-2.2 2.7-1.9 3.2.4.6 1.1.5 1.7-.1.6-.6 1.5-1.1 1.9-1.1 1.5 0 .8 2.6-1.2 4.3-2.3 2-2.7 4.2-.5 3.3.8-.3 1.5-.1 1.5.5 0 2-2.1 4.9-3.6 4.9-1.1 0-1.3-.4-.5-1.7.6-1.2.5-2-.7-2.9-1.1-.8-1.5-2.6-1.4-6.3 0-2.8-.3-5.1-.7-5.1-1.3 0-1.9 6.2-.9 8.9.5 1.4.6 3.2.2 4-1.3 3.1-1 6.5.8 8.3 1.9 1.9 4.7 2.2 12.2 1.2 3.5-.5 4.6-1.1 4.6-2.5 0-2.3 2.1-6.9 3.2-6.9.4 0 .8-.4.8-.9 0-.6-2.4-1.1-5.2-1.3-5-.3-5.3-.4-4.9-2.8.3-1.4.5-17.2.6-35.2 0-21.6.4-33.1 1.1-33.8.6-.6 4.2-1.6 8-2.1 3.8-.6 7.7-1.5 8.8-2.1 1.2-.6 2.2-.6 2.9.1 1.3 1.3 7.7 1.5 7.7.2 0-2.2-15.6-2.7-22.5-.7zM260 24.9c0 .6-.4 1.3-1 1.6-.5.3-1-.1-1-.9 0-.9.5-1.6 1-1.6.6 0 1 .4 1 .9zm1 19.6c0 .8-.4 1.5-1 1.5-.5 0-1-.7-1-1.5s.5-1.5 1-1.5c.6 0 1 .7 1 1.5zm0 36.3c0 .5-.9 1.7-2 2.7-1.6 1.4-2 1.5-2 .4 0-1.6 1.9-3.9 3.2-3.9.4 0 .8.4.8.8zm-5 6.2c0 .5-.7 1-1.5 1s-1.5-.5-1.5-1c0-.6.7-1 1.5-1s1.5.4 1.5 1zM112 3.4c-7.3 3.4-7.7 3.8-5.1 4.8 2 .7 2.1 1 1 2.4-.8.9-1.4 2.4-1.4 3.2 0 .8-.6 1.7-1.2 1.9-.7.3-1.3-.3-1.3-1.3 0-1.6-.1-1.6-2 .1-1.2 1-1.9 2.4-1.6 3.1.3.7-.8 4.5-2.4 8.6-1.5 4-3.1 8.8-3.5 10.5-.6 3.2-.6 3.3 2.4 2.7 4.2-.9 4 .9-.4 3.6-2.9 1.8-3.8 2-5 1-.8-.7-1.5-1.9-1.5-2.7 0-.8-1.1-2.8-2.5-4.5C86.1 35.2 85 33 85 32s-.8-2.8-1.8-4c-1.7-2.1-2-2.1-8.7-.9-7.4 1.3-17.1 6.4-18.2 9.7-.3.9-1.5 2.7-2.5 3.9-1.5 1.6-1.7 2.6-1 4 .6 1.1.7 2.5.3 3.2-1 1.5-3.2-1.7-5.1-7.4-1.2-3.5-4.5-10.4-7-14.5-.5-.8-3-5.9-5.5-11.3S30.2 4.6 29.4 4.3c-1.7-.6-12 1.4-14.4 2.8-.8.5-2.5 1.3-3.7 1.9C10 9.5 9 10.4 9 11c0 .6-1.6 1.8-3.5 2.6-2.6 1.1-3.5 2-3.5 3.8 0 2.7 2.8 4.4 3.5 2.1.3-.8.7-2.2 1-3.1.6-2 2.5-.8 2.5 1.6 0 2.9-1.1 5-2.6 5-.8 0-1.4 1-1.4 2.6 0 1.9.4 2.5 1.5 2.1 1.8-.7 3.1 1.1 1.8 2.4-.7.7-.6 2.3.3 4.7.7 2 1.3 4.7 1.4 5.9 0 1.2.5 2.5 1 2.8.6.4 2 2.8 3.1 5.3 4.5 10.1 7.2 15.9 9.9 21.7 1.6 3.3 4.2 9 5.9 12.7 1.7 3.6 3.5 6.9 4 7.3C37.8 92.9 56 92 56 89.4c0-1.7 1.2-1.8 2.7-.3C60.9 91.3 72 80.7 72 76.6c0-.9.3-1.6.8-1.6.8 0 5.2 9.5 5.2 11.4 0 .7.9 2.1 2 3.1 3 2.7 17.3 1.6 22.7-1.8 8.6-5.4 7.7-7.6-2.4-5.7-6.1 1.2-6.7 1.1-8-.5-1.2-1.8-1.3-1.8-1.3.2 0 2.1-6.2 6.8-7.4 5.6-1.2-1.3-.5-4.3.9-4.3.9 0 2-1.2 2.5-2.6.6-1.4 1.4-2.3 1.9-1.9 2.4 1.4 2-2.1-.9-8.3-3.6-7.7-4.2-9-6.5-15.4-2.8-8.1-5.6-8-3.2.1.9 3 1.1 5.1.5 5.1-.5 0-1.2-.9-1.5-2-.3-1.1-.8-2-1.2-2-1.3 0-5.4 11.3-6.6 18.5-1 6-2.2 7.7-4.5 6.5-1.3-.7-3.1-.5-6 .5-2.4.8-5.7 1.5-7.4 1.5-3.1 0-3.2-.2-4.5-6.3-.7-3.4-1.9-6.9-2.6-7.7-2-2.3-8.1-14.9-10.1-20.8-1-2.9-2.7-6-3.7-7-1.9-1.6-1.9-1.6-1.2 1.8.4 1.9 1.3 4.8 2 6.5 1.9 4.4 2.4 7.4 1.4 8.1-1.9 1.1-.8 2.4 1.6 1.8 3.3-.8 3.3 1.5 0 4.6l-2.4 2.3-1.1-2.7c-.5-1.5-1-3.6-1-4.6 0-1-.5-2-1.1-2.2-.9-.3-.9-1 0-2.7.7-1.2.9-2.6.5-2.9-.4-.4-.9-.1-1.1.5-.3.7-1 1.3-1.6 1.3-1.4 0-3.9-4.9-3.1-6.1.8-1.4 2.4-1 2.4.6 0 .8.4 1.5 1 1.5 1 0 .5-4.4-1.1-9.4-1.1-3.6-.4-4.6 1.6-2 2.2 2.9 1.9-.3-.5-5.4-1.1-2.2-2-5-2-6.1 0-1.1-1.1-3.7-2.5-5.7s-2.5-4.3-2.5-5c0-.7-.7-1.7-1.7-2.2-2.5-1.5-.8-4 3.4-5.1 6.4-1.6 7.5-1.7 8.3-.1 1.9 3.4 8.9 19.7 9.5 21.9.4 1.2 1.8 3.9 3.1 5.8 1.3 2 2.4 4.2 2.4 4.9 0 .8 1.3 3.5 2.9 6.1 1.6 2.7 3.3 6.1 3.7 7.8.4 1.6 1.3 3.9 2 5 .8 1.1 1.4 3 1.4 4.2 0 1.3.5 2.3 1 2.3 1.6 0 5-3.8 5-5.6 0-.9.6-3 1.4-4.7 1.4-3.4 5.1-15.3 6.1-20 .5-2.5.3-2.8-1.5-2.2-1.1.3-2 .2-2-.3 0-1.4 2.8-3.5 3.7-2.9.5.3 3.3-.1 6.2-.9 5.7-1.4 8.1-.8 8.1 2.3 0 .7 2 5.5 4.3 10.6C94.2 56.8 95 58.7 95 60.2s3 4.8 4.3 4.8c.4 0 .7-.9.7-1.9 0-1.1.5-2.3 1-2.6.6-.3 1-1.6 1-2.8 0-1.2 1.4-5.3 3-9.2 1.7-3.8 3-7.1 3-7.2 0-.2-1-.1-2.3.2-2 .5-2.3.2-2.2-2.1 0-1.5.6-2.9 1.3-3.2.7-.2 1.2.5 1.2 1.8 0 1.9.2 2 1.5 1 .8-.7 1.5-1.8 1.5-2.4 0-.7.9-2.9 2-5.1 2.5-4.8 2.5-7.1.3-8.4-1.7-.9-1.7-1 .2-1.7 4.2-1.5 4.8-2.6 2.3-4.6-1.7-1.3-1.9-1.8-.7-1.8 2.1 0 5.4-3.8 6.6-7.5 1.2-3.6 3.2-4.2 7.5-2.1 3.7 1.9 7.1 2.1 6.6.4-.7-1.9-6-4.6-9.4-4.7-3-.1-6.4 2.4-6.4 4.6 0 1.3-2.4 2.3-5.3 2.3l-2.2-.1 2.3-1.9c1.2-1 2.7-2 3.4-2.2.6-.2.9-.9.7-1.4-.2-.7-2.1-.3-4.9 1zm4 7c0 1-5.2 3.6-6.1 3.1-1.6-1.1 1-3.5 3.7-3.5 1.3 0 2.4.2 2.4.4zM14.5 14c.4 1.6 1.3 3 2.1 3 2 0 1.7 1.3-.6 2.8-2.3 1.4-2.7 3.7-.6 2.9 2-.8 2.7.3 1.6 2.3-.6 1.1-.4 2.5.4 4.2.8 1.5 1 3.1.5 3.9-.7 1.2-2.4.6-2.4-.9 0-.4-.5-2.1-1.2-3.7-.6-1.7-1.5-3.9-1.9-5-1.5-4.1-1.1-12.5.6-12.5.5 0 1.1 1.3 1.5 3zm96 2.9c.3.5.1 1.2-.5 1.6-.5.3-1-.1-1-.9 0-1.8.6-2.1 1.5-.7zm-2.5 3.9c0 1.3-1.2 2.2-2.2 1.6-1-.6-.1-2.4 1.3-2.4.5 0 .9.4.9.8zm-2.7 7.4c.6 2.3.1 3.8-1.3 3.8-.5 0-.8-1.4-.8-3 .1-3.5 1.3-4 2.1-.8zm-81.9.9c-.3.5-1 .7-1.5.3-.5-.3-.7-1-.3-1.5.3-.5 1-.7 1.5-.3.5.3.7 1 .3 1.5zm78.3.5c-.9.9-2.8-.6-2.1-1.8.4-.6 1-.6 1.7.1.6.6.8 1.3.4 1.7zm8.8-1.7c.7 1.2-1.2 2.4-2.5 1.6-1.1-.7-.4-2.5 1-2.5.5 0 1.1.4 1.5.9zM25 32.4c0 .3-.4.8-1 1.1-.5.3-1 .1-1-.4 0-.6.5-1.1 1-1.1.6 0 1 .2 1 .4zM63.5 35c.3.6-.1 1.3-1 1.6-1.9.8-3 0-2-1.5.8-1.4 2.2-1.4 3-.1zm36.3.2c-.6 1.8-2.8 2.1-2.8.4 0-.9.7-1.6 1.6-1.6.9 0 1.4.5 1.2 1.2zm-80 2.3c-.2 1.4-.7 2.6-1.3 2.6-.5 0-1.1-1.2-1.3-2.6-.2-1.8.1-2.5 1.3-2.5s1.5.7 1.3 2.5zM65.5 39c.3.5-.1 1-.9 1-.9 0-1.6-.5-1.6-1 0-.6.4-1 .9-1 .6 0 1.3.4 1.6 1zm-4.1.9c.3.5-.1 1.2-1 1.5-2 .8-2.9.1-1.9-1.3.8-1.3 2.2-1.4 2.9-.2zM24.5 44c-.5.8-1.1.8-1.7.2-.6-.6-.7-1.6-.3-2.2.5-.8 1.1-.8 1.7-.2.6.6.7 1.6.3 2.2zm32.9 1.1c-.3.5-1 .7-1.5.3-.5-.3-.7-1-.3-1.5.3-.5 1-.7 1.5-.3.5.3.7 1 .3 1.5zm6.6-1.2c0 1.3-2.6 3.2-3.3 2.4-.8-.7 1.1-3.3 2.4-3.3.5 0 .9.4.9.9zM17 47c0 .5-.4 1-1 1-.5 0-1-.5-1-1 0-.6.5-1 1-1 .6 0 1 .4 1 1zm78-.2c0 1.3-1.2 2.2-2.2 1.6-1-.6-.1-2.4 1.3-2.4.5 0 .9.4.9.8zm7-.4c0 .3-.4.8-1 1.1-.5.3-1 .1-1-.4 0-.6.5-1.1 1-1.1.6 0 1 .2 1 .4zM61 50c0 .5-1 1-2.2 1-1.9 0-2-.2-.8-1 1.9-1.3 3-1.3 3 0zm39 0c0 .5-.7 1-1.6 1-.8 0-1.2-.5-.9-1 .3-.6 1-1 1.6-1 .5 0 .9.4.9 1zm-40.6 6c-.5.4-1.9 1.1-3.1 1.5-1.7.4-2.3.2-2.3-.9 0-.8.9-1.8 2-2.1 1.1-.3 2-1.2 2-1.8 0-.7.5-.4 1.1.6.6 1.1.7 2.2.3 2.7zm-34.8 2.5c.3 2.2.8 4.3 1 4.7.2.4 0 .9-.5 1.3-2 1.2-3.9-5.4-3.2-11 .2-2.1 2.1 1.3 2.7 5zm75.4-1c0 2.6-1.4 3.3-2.5 1.5-.9-1.4.1-4 1.5-4 .5 0 1 1.1 1 2.5zm-23 7.2c.1 2.2 2.5 5.5 3.3 4.6.4-.3.7-.2.7.4 0 2-2.6 3.4-3.8 2-1.7-2-3.3-6.8-2.6-7.8.9-1.5 2.4-1 2.4.8zm5-.7c0 .5-.4 1-1 1-.5 0-1-.5-1-1 0-.6.5-1 1-1 .6 0 1 .4 1 1zm-45.6 2.8c.5.9-1.5 2.8-5.2 4.9-2.9 1.7-4.2 1.6-4.2-.2 0-.8.6-1.5 1.3-1.5.8 0 2.2-.9 3.2-2 1.9-2.1 4-2.6 4.9-1.2zM27 68c0 .5-.2 1-.4 1-.3 0-.8-.5-1.1-1-.3-.6-.1-1 .4-1 .6 0 1.1.4 1.1 1zm12 4.4c0 .8.7 2.6 1.4 4.2.8 1.5 1.3 3.1 1 3.6-.3.4.2.8 1 .8.9 0 1.6-.8 1.6-1.8 0-1.3.2-1.4.9-.4 1.8 2.9-1.2 9.1-4.5 9.2-1.3 0-5.8-7.9-5-8.7.3-.4 2 .9 3.6 2.7 1.6 1.8 3.2 3.1 3.5 2.8.3-.3-.1-1.2-.9-2.1-1.8-1.7-5.6-11.4-4.8-12.1.8-.8 2.2.4 2.2 1.8zm5 3.2c0 .8-.4 1.2-1 .9-.5-.3-1-1.3-1-2.1s.5-1.2 1-.9c.6.3 1 1.3 1 2.1zm42.4 1.3c.3.5-.1 1.4-.9 2.1-1.2 1-1.5.9-1.5-.4 0-.9-.4-1.6-1-1.6-.5 0-1 .4-1 1 0 .5-.5 1-1.1 1-.8 0-.8-.5.1-1.5 1.4-1.6 4.6-2 5.4-.6zm-53.6 2.2c-.2.6-.8 1-1.3 1s-1.1-.4-1.3-1c-.2-.6.4-1.1 1.3-1.1s1.5.5 1.3 1.1zm1.7 4.9c.3.5.1 1-.4 1-.6 0-1.1-.5-1.1-1 0-.6.2-1 .4-1 .3 0 .8.4 1.1 1zM63 85c-1.9 1.2-4 1.3-4 .1 0-.9 4-2 5-1.3.2.2-.2.7-1 1.2zm-12 .8c0 1-2.2 3.2-3.2 3.2-1.3 0-.9-2.8.5-3.3 1.9-.8 2.7-.8 2.7.1zM93 88c0 .5-.4 1-1 1-.5 0-1-.5-1-1 0-.6.5-1 1-1 .6 0 1 .4 1 1zM189.7 2.4c-.6 1.6 1.9 3 2.8 1.6.4-.6 3.6-1 7.2-1h6.5l-.6 9.7c-.4 5.4-1.2 13.3-1.8 17.5-.5 4.3-.7 8.5-.4 9.4.6 1.5.9 1.5 3-.5 3.9-3.7 11.8-6.1 20-6.1 7 0 7.6.2 11.8 3.6 2.3 1.9 5.1 4.5 6.1 5.6 2.2 2.6 3.1 1.9 1.8-1.3-.5-1.4-3.6-4.4-6.9-6.7l-6-4.2-9.4 1c-8.7.9-15 2.8-16.3 5.1-1.4 2.2-2.7.7-2.1-2.4.4-1.7 1.4-9.2 2.1-16.6 1.1-9.8 1.2-13.8.4-14.8-1.6-1.9-17.5-1.8-18.2.1zM181.9 9.2c-3.3 3.6-4.9 6.8-3.5 6.8.2 0 2.5-2.5 5.1-5.5 5.4-6.4 4.1-7.5-1.6-1.3zM297 6.8c0 .6 1.1 1.7 2.5 2.6 1.4.9 2.5 2.2 2.5 2.9 0 .6.9 2.3 2 3.7 4.4 5.7 1.2 18.5-6.3 25.1l-4.2 3.6 4 4.9c2.1 2.7 4 5.1 4.2 5.3.2.2.6.1.9-.2.4-.4-.5-2.2-2-4.1-3.1-4.2-3.2-5.2-.6-6.6 1.1-.6 2.9-3.2 4-5.8 1.1-2.6 2.5-5.5 3-6.4.5-1 1.3-4.2 1.6-7.1.7-5.7-.2-7.7-6.1-14.5-2.4-2.8-5.5-4.7-5.5-3.4z"/><path d="M186.6 10.2c-1.3 1.8-2.4 4.2-2.3 5.3.2 1.4-.6 2.1-2.8 2.5-2.9.5-3 .8-3.6 6.5-.4 4.3-.2 6.4.7 7.5 1.2 1.2 1.6 1.2 2.8-.5 1.9-2.6 2.8-1.6 2 2.4-.6 2.6-1 3.1-3.1 2.8-1.4-.2-3.3-1.4-4.3-2.7-1-1.4-2.2-2.1-2.6-1.7-.4.4.2 1.7 1.3 3 2.4 2.7 5.3 8.4 5.3 10.6 0 1.3-1.8 1.9-8.7 2.9-9.2 1.2-15.3 3-15.3 4.5 0 .5.8.6 1.8.2 3.4-1.5 11.2-1.8 11.2-.5 0 .6-.9 1.4-2 1.7-3 .8-2.4 2.3 1 2.3 1.7 0 3-.4 3-.9s1.4-1.4 3-2c1.7-.5 3-1.5 3-2.1 0-.6 1-1 2.3-.8 2 .3 2.2.8 1.9 5.3-.2 2.7-.6 5.2-.9 5.5-.2.3-1.3-.7-2.4-2.2l-2-2.7-8.8 4.5c-9.1 4.5-15 5.6-19.2 3.4-2.7-1.5-2.4-3 .6-3 1.8 0 2.5-.5 2.5-2 0-2.3 1.8-2.6 3.4-.5 1.4 1.9 9.6.9 9.6-1.2 0-1.9-3-2.9-4-1.2-.7 1.1-1.3 1.1-3.7-.1-1.5-.8-3.2-2.1-3.6-2.7-1.1-1.8-3.7-1.6-3.7.1 0 2.3-2.2 3.1-3.4 1.3-1.1-1.4-1.4-1.4-3.4.2l-2.3 1.7 2 1.9c1.2 1 2.1 2.6 2.1 3.6 0 2.9 4 4.9 9.8 4.9 4.3 0 6.9-.8 13.4-4.2l8.1-4.1 2.4 2.9c1.2 1.6 2.1 3.3 2 3.9-.7 1.9-8.3 6.4-12.9 7.5-2.5.6-5.5 1.8-6.5 2.6-1.6 1.4-1.4 1.5 2.7.9 2.5-.3 5.6-1.4 7-2.3 1.4-.9 2.9-1.5 3.4-1.4.5.2 2.2-.9 3.7-2.4 2.7-2.6 2.9-2.6 2.9-.8 0 2.5-3.8 6.3-7.1 7-1.3.3-2.8.7-3.4.8-.5.2-2.5.7-4.3 1.1-1.8.4-3.5 1.2-3.8 1.6-.7 1.2-5.4 1.1-5.4 0 0-.6.5-1.3 1-1.6 2.3-1.5.7-2.2-4-1.7-7.8.7-19-5.1-19-10 0-1-.4-1.8-1-1.8-1.3 0-1.3 2.4.2 7.2.8 2.7 1.8 4 3.5 4.4 1.2.4 2.3 1 2.3 1.5s2.2.9 4.9.9c3.3 0 5.6.6 7.3 2 1.4 1 2.8 1.6 3.2 1.3.3-.3.6-.1.6.5 0 1.5-5.6 1.6-6.5.2-.9-1.5-2.5-1.2-2.5.5 0 .8.7 1.5 1.5 1.5s1.5.5 1.5 1.1c0 .7-1.2.9-3.5.5-2.2-.4-3.5-.3-3.5.4 0 .5-.7 1-1.5 1s-1.5.4-1.5 1c0 1.2.9 1.2 14.4 0 6.1-.6 11.6-1.6 12.3-2.2.7-.6 2.8-1.4 4.6-1.7 2.6-.6 3.1-1.1 2.9-2.9-.2-1.6.1-2 1.1-1.6 1 .3 1.8-.2 2.2-1.5 1.1-3.6 3.3-2.4 4 2.2.4 2.4 1.1 5 1.5 5.7 1.1 1.7 12.5 2.7 13.4 1.1.4-.6 2.3-1.1 4.2-1.1 1.9 0 3.4-.3 3.4-.8 0-.4.4-1.3.9-2.1.7-1.1 1.5-.9 4.1 1 2.7 2.1 4.3 2.4 11.4 2.4 7.5 0 8.5-.2 11.5-2.8 2.1-1.8 4-2.6 5.2-2.2 1.4.5 2.4-.5 4.4-4.4 2.4-4.9 2.2-6.8-.5-3.6-.9 1.1-1.6 1.3-2.4.5-.5-.5-5-1-9.9-1-9.7 0-15.6-1.3-20-4.3-2.9-2-2.6-2.2-4.2 2.8-.3 1-1.9 1.6-4.5 1.6-2.2.1-4.5.2-5.2.3-.7.1-1.2-1.9-1.3-5.2-.2-5.9-.7-6.7-4.1-6.7-2.7-.1-3.2 1.2-.9 2.1 2 .8 1.9 2.4-.1 2.4-1 0-1.4.6-1.1 1.5.8 1.9-.9 2.9-2 1.3-2.5-4.1-.1-10.8 3.9-10.8 1.5 0 1.7-.4.9-1.8-.7-1.3-.6-2.3.2-3.2.9-1 .9-1.4 0-1.7-2-.7-1.6-5.1.6-5.8 2.6-.8 3.3-4.3 2.5-12-.8-7.9-2.4-8.6-2.4-1 0 3-.4 5.5-.9 5.5-1.3 0-2.1-2.7-1.5-4.5.4-.8.1-2.1-.5-2.9-1.4-1.6.3-7.2 2.5-8 1.4-.5 2.1-5.6.7-5.6-.4 0-1.7 1-3 2.2-2.6 2.4-4.4 1.7-2.5-1 .7-.9 1.7-2.9 2.3-4.5.6-1.5 1.7-2.7 2.5-2.7 1.6 0 2-4.5.5-5.5-.5-.3-2.1.9-3.5 2.7zm-2.9 16.9c-.7 1.1-1.5 1.5-2.1.9-1.3-1.3.1-4.1 1.8-3.4 1.2.5 1.3.9.3 2.5zm1.7 17.8c-1.1 2.3-2 2.9-2.7 2.2-.7-.7-.7-1.4.1-2.3.7-.9.7-1.9.2-2.8-1.2-1.9 1.1-3.3 2.8-1.7 1 1.1.9 1.9-.4 4.6zm4.6-.4c0 .8-.4 1.5-1 1.5-.5 0-1-.7-1-1.5s.5-1.5 1-1.5c.6 0 1 .7 1 1.5zM186 55c0 .5-.4 1-1 1-.5 0-1-.5-1-1 0-.6.5-1 1-1 .6 0 1 .4 1 1zm25.6 19.8c.6.4 1.1 1.8 1 3.1 0 1.3.5 2.6 1.2 2.8.7.3 1.2-.4 1.2-1.6 0-1.6.6-2.1 2.4-2.1 3.4 0 4.1 1.6 1.1 2.4-1.4.4-2.5 1.1-2.5 1.6 0 .6-.7 1-1.5 1s-1.9.9-2.5 2.1c-1.5 2.6-2.5 1.6-2.5-2.4-.1-1.8-.4-4.2-.9-5.5-.8-2.3.7-3 3-1.4zM185 76.4c0 .3-.4.8-1 1.1-.5.3-1 .1-1-.4 0-.6.5-1.1 1-1.1.6 0 1 .2 1 .4zm47 2.7c0 1.2-4.1 5.9-5.2 5.9-.5 0-.6-.9-.3-2 .5-1.5.2-2-1.3-2-1.1 0-2.5.7-3.2 1.5-1 1.2-.9 1.6.4 2.1 2.2.8 2 2.4-.3 2.4-6 0-2.5-7 4.5-8.7 4.1-1 5.4-.8 5.4.8zm-28-.4c0 1.1-3.2 4.3-4.4 4.3-.6 0-1.6.8-2.3 1.9-1.5 2.4-5.3 3.4-5.3 1.4 0-.8.9-1.7 2-2 2.9-.8 1.9-2.7-1.6-3.3-1.9-.4-2.5-.8-1.6-1.3.6-.5 1.6-.5 2.2-.2.5.3 1.8.1 2.7-.4 2-1.2 8.3-1.5 8.3-.4zM186.5 83c.4.6 1.1.8 1.6.5 1.1-.7 1.1-.3.3 1.9-.5 1.4-.8 1.4-3 0-1.3-.9-2.1-2-1.8-2.5.7-1.2 2.1-1.1 2.9.1zM164 85.5c0 1.7-.2 1.8-2.4.9-2.3-.9-2-2.4.4-2.4 1.1 0 2 .7 2 1.5z"/><path d="M132.8 12.8c-.9 2-2 5.3-2.4 7.2-.3 1.9-1 4.1-1.5 5-1.5 2.5-5.9 15.2-7.6 21.5-.8 3.3-1.9 6.4-2.3 7-.4.5-1.1 2.6-1.5 4.5-.4 1.9-1.6 5-2.6 7-1 1.9-2.1 4.8-2.5 6.4-1.2 5.1 1.8 2.5 3.7-3.2 1-2.9 2.5-5.9 3.3-6.8.9-.8 1.6-2.6 1.6-3.9 0-1.3.8-2.8 1.7-3.4 1.4-.7 1.5-1.2.5-2.4-1-1.1-.8-1.8.9-3.3 1.2-1 2.5-2.9 3-4.2.5-1.2 1.5-2.2 2.4-2.2 1.9 0 2 1.6.1 2.7-1.3.8-3.6 4.5-3.6 5.9 0 .3.7 0 1.7-.7 1.3-1.1 1.7-1.1 2-.2.8 2.2 2.3 1.4 2.3-1.2 0-3.3 1.8-7.1 6.1-13.1 3.1-4.2 4.7-5.4 9.8-7.3 5.5-2 6.6-2.1 12.3-1 3.5.6 7.1 1.8 8 2.6.9.8 2.2 1.2 2.8.8 1.8-1.1-.5-3-5.2-4.4-2.4-.7-5.1-1.7-6-2.2-2.5-1.3-4.9-1.1-7.9.5-1.4.7-3.9 1.6-5.5 2-4.6 1.2-12.6 6.4-16.6 10.9-3.7 4.2-3.7 4.2-3.8 1.5 0-1.5.4-2.9.9-3.2.5-.3 1.5-3 2.2-5.8.6-2.9 1.8-6.2 2.5-7.3.7-1.1 1.6-3.7 1.9-5.8.4-2 1.1-4 1.6-4.3 1.1-.6 1.2-3.4.2-3.4-.5 0-1.6 1.7-2.5 3.8zM400.7 9.8c-.3.4-.2 1.4.3 2.2.7 1.1 1.1 1.1 2.3.1.9-.7 3.4-1.1 5.9-.9l4.3.3-.3 4.7c-.2 2.9 0 4.8.7 4.8 1.2 0 2.4-5.7 1.9-9.1-.3-2.2-.8-2.4-7.5-2.7-3.9-.2-7.4.1-7.6.6zM274.4 11.2c-1.4 2.2-1.8 18.8-.5 18.8.6 0 1.1-1.7 1.1-3.9 0-4.5.6-5.2 3.7-4 2.5.9 4.3 3.8 5.3 8.6.9 3.7 0 4.7-4.7 5.8-3.4.7-4.6 2.5-1.7 2.5.9 0 3.4-.5 5.5-1.2 3.3-.9 3.8-1.5 3.4-3.2-.3-1.2-.2-1.5.1-.9.3.7 1 1.3 1.5 1.3 1.9 0 6.9-4.4 6.9-6.1 0-1 .5-2.1 1-2.4 1.7-1.1 1.1-5.5-1.2-8.8-4.2-6.2-6.7-7.6-13.5-7.7-3.9 0-6.5.5-6.9 1.2zm7.3 3.3c1.8 1.3 2.2 1.3 3.3 0 1.9-2.3 2.7-1.9 5.5 2.5 2.8 4.5 3.3 8.8.9 9.7-.8.3-2 1.7-2.5 3.1-.7 1.8-1.3 2.2-2 1.5-.8-.8-.8-1.7 0-3.2.9-1.5.8-2.5-.1-4s-.9-2.5 0-4.5c.7-1.6.8-2.7.2-3.1-.6-.4-1.3.1-1.6.9-.8 2.1-1.6 2-4.4-.4-1.3-1.1-2.5-1.8-2.8-1.5-.2.2 1 1.6 2.7 3 4.5 3.8 3.8 5-1.1 2.1-4.5-2.7-5.3-3.8-4.4-6.1.7-1.9 3.6-1.9 6.3 0zM393.8 15.7c-.7.9-1.4 4.7-1.7 8.7-.2 4-.9 7.5-1.6 8.1-.7.5-1.5 3.4-1.8 6.3-.5 4.7-.4 5.2.8 4.2.8-.7 1.5-2.8 1.5-4.7 0-2.6.5-3.6 1.9-4 1.1-.3 2.2-1.5 2.5-2.6l.6-2.2 1.9 2.4c3 4 4.1 1.8 4.1-8.4v-9.3h-3.5c-1.9 0-4 .7-4.7 1.5zm3.1 4.4c-1.5.9-3.2.2-2.4-1.1.3-.5 1.3-.6 2.1-.3 1.2.4 1.3.8.3 1.4zm1.7 2.5c-.3.9-.6 1.8-.6 2 0 .2-.7.4-1.5.4-1.3 0-1.3-.3-.3-2 1.5-2.4 3.3-2.7 2.4-.4zM447.5 22.7c-3.4 1.1-7.2 3.5-11.8 7.5-5.9 5.3-6.9 5.9-8.4 4.7-1.4-1.2-1.5-1.1-.7 1.1.5 1.4.8 4.3.7 6.5-.2 3.6.2 4.3 4.2 7.5 2.5 1.9 4.6 4.4 4.7 5.5.3 4 .3 4.4 1 5.1.4.4 1.2-.6 1.8-2.1 1-2.7 1.1-2.7 3-1 3.8 3.4 12.5 7.7 15.5 7.6 1.1 0 3-.1 4.2-.1 1.2 0 2.7-1 3.4-2.1 2.1-4.1-.7-8.4-6.8-10.3-3.2-1-2.9 1 .4 2.6 3.7 1.8 5.3 4.6 3.3 5.8-1.1.7-1.6.5-1.8-.6-.3-1.2-1.1-1.4-3-.9-2.2.5-2.4.4-1.3-.9 1.6-1.9.6-3.7-1.5-2.9-1.4.5-1.5.3-.5-1.6 1.4-2.6.9-3.5-2.7-5.4-8.3-4.2-13.2-8.2-13.2-10.9 0-3.5-1.8-1.7-2.5 2.4-.8 4.5-2.2 7.1-3.5 6.3-.4-.2-.5-1.5-.3-2.9.4-1.7 0-2.5-1.2-2.8-2.7-.5 2.4-7.3 5.5-7.3 1.7 0 2.6-.6 2.8-2 .7-3.4 3.2-5.3 8.3-6.4 9.3-2 18.7-.7 22.5 3.1 1.2 1.2 1.3 2 .3 4.1-1.8 4-4.7 4.5-7.3 1.2-2-2.5-2.7-2.7-6.2-2.1-6.8 1.3-9.4 5.5-5.6 8.9 2.4 2.2 2.9 2.1 3.5-.4.3-1.2 1-1.8 1.7-1.4.6.4.8 1.4.5 2.4-.5 1.8 5.8 7.2 12.2 10.5 3.7 1.8 8.3 7.5 8.3 10.1 0 .9-1.8 3.9-4.1 6.6-4.3 5.1-10.4 7.9-17.6 7.9-1.8 0-3.3.4-3.3 1 0 .5 2.3 1 5 1 2.8 0 5 .3 5 .8 0 1.3-7.4 3-11.2 2.5-3.4-.5-3.8-.3-3.8 1.7 0 1.9.4 2.2 2.7 1.7 2.5-.5 2.6-.4.9.8-1 .8-2.4 1.1-3.2.8-.8-.3-2.1 0-2.9.7-1 .9-1.5.9-1.5.1 0-.6.5-1.1 1-1.1 1.9 0 1-4.2-1-4.7-1.1-.3-2-.9-2-1.4 0-1.4 2.1-2.2 3.2-1.1.7.7 1.8.7 3.4 0 3-1.4 3.1-2.6.2-2.6-1.3 0-4.2-.3-6.6-.7-3.6-.7-4.5-.5-5.7 1.1-.7 1-1.7 1.6-2.1 1.1-.4-.4-1.7-.1-3 .7-1.2.8-2.4 1.2-2.8.9-1-1.1-.7-4.8.6-6.1 1.7-1.7 2.8-1.5 2.8.4 0 .9.6 1.4 1.3 1.1 1.6-.5.9-5-.9-6-1.9-1.1-.8-2.8 1.3-2 1.4.5 1.5 0 1.1-3.4-.4-2.4-.1-4.6.5-5.2 1.6-1.6.1-2.4-2.2-1.1-1.2.6-2.8 2.6-3.6 4.5-.9 2.4-2.1 3.5-3.4 3.5-1.4 0-2.3.9-2.7 2.7-.3 1.6-1.2 4.2-2 6-2.3 5.2-1.5 8 1.4 5.1 2-2 1.4.7-.8 3.5s-2 3.1 2.8 4.2c1.8.3 4.6 1.4 6.3 2.2 2.5 1.2 5 1.4 11.5 1 4.5-.3 9.1-1 10.1-1.5 1-.6 3.8-1.6 6.2-2.3 2.8-.8 4.7-2.1 5.4-3.6.6-1.4 1.6-2.2 2.5-1.8 2.1.8 7.3-3.4 7-5.6-.2-1.3.6-2.4 2.1-3.2 2.9-1.4 4.5-6.6 3.7-11.6-.7-4.3-5.5-9.5-11.8-12.7-2.7-1.3-4.8-3-4.8-3.8 0-1.7 3.2-4.6 5.2-4.6 2.2 0 6.8-8.1 6.1-10.8-.5-2.1-4.4-4-12.8-6.2-5-1.3-6.8-1.2-13 .7zm15 14.3c0 1.9-1.8 2.2-4 .7-1.2-.9-1.6-2-1.2-3.2.7-1.6.9-1.6 3-.2 1.2.8 2.2 2 2.2 2.7zm-23.8 8.7c-.2 1-.8 2.6-1.2 3.5-.5 1.3-.2 1.8.9 1.8.9 0 1.6.4 1.6 1 0 1.6-1.9 1.2-4.1-.9-1.7-1.6-1.8-1.9-.4-3.1.8-.7 1.5-1.9 1.5-2.6 0-.8.5-1.4 1.1-1.4.6 0 .9.8.6 1.7zm13.3 7c0 2.1-3.8 1.5-5-.7-.6-1.1-1.6-2-2.3-1.9-.7.1-1.9.1-2.7 0-1.2-.1-1.2-.3-.2-1 1.7-1 10.2 2 10.2 3.6zm-7.2 3c.6 1.9-2.5 1.6-3.2-.3-.4-1.1-.1-1.4 1.1-1.2.9.2 1.8.9 2.1 1.5zm6 2.5c1.7 1.7 1.5 2.8-.6 2.8-1.9 0-4.2-1.8-4.2-3.2 0-1.2 3.5-.9 4.8.4zM428 69.5c0 .8-.4 1.5-1 1.5-.5 0-1-.7-1-1.5s.5-1.5 1-1.5c.6 0 1 .7 1 1.5zm-3 4.5c0 .5-.4 1-1 1-.5 0-1-.5-1-1 0-.6.5-1 1-1 .6 0 1 .4 1 1zm43 2c0 .5-.7 1-1.6 1-.8 0-1.2-.5-.9-1 .3-.6 1-1 1.6-1 .5 0 .9.4.9 1zm-28.7 3.5c-.3.8-.9 1.5-1.4 1.5-1 0-1.2-2.4-.3-3.3 1.1-1.1 2.4.3 1.7 1.8zM428.5 84c.4.6 1.5.8 2.6.5 2.3-.8 2.6 1.3.3 2.2-.9.3-2.5-.3-3.7-1.6-1.2-1.1-1.6-2.1-1-2.1.7 0 1.5.5 1.8 1zm12.5 3c0 .5-1.3 1-2.9 1-1.7 0-3.3-.5-3.6-1-.4-.6.8-1 2.9-1 2 0 3.6.4 3.6 1zM535.3 25c-6.3 2.8-18.3 14.5-12.8 12.4 1.9-.8 1.9 1 0 2.6-1.3 1.1-1.3 1.6.1 4.2.8 1.6 2.3 3.2 3.2 3.5.9.4 2.3 1.5 3 2.5.7 1 1.6 1.8 2 1.8 1.3 0 2.9-4.8 2.1-6.2-.5-.7-.9-2-.9-2.8.1-1.5 1.9.4 4 4 .5.8 1.1 1.2 1.5.8.4-.3-.6-2.5-2.1-4.7-2.6-3.9-4.4-5.2-4.4-3.1 0 1.6-1.2 1.1-4.5-1.5l-2.9-2.4 2.4-2.6c2.7-2.8 4-3.2 4-1 0 .8-.4 1.5-1 1.5-1.4 0-1.3 2.7.2 3.6.6.4 1.4.2 1.6-.4.7-2.2 2-1.2 5.3 3.8 2.9 4.5 4.9 6.3 4.9 4.2 0-.8-4.9-8.4-7.9-12.4-2.7-3.4-2.7-3.4 1.1-5.2 4.2-2.1 5.3-2 7.1.6.8 1.3 3.7 4.7 6.5 7.6l5.1 5.3 5.8-3.7c3.2-2.1 7.8-5.1 10.2-6.8 4.1-2.8 4.5-2.9 5.5-1.2.6 1 1.6 2.5 2.3 3.4 1.2 1.6 1.2 1.6 1.3 0 0-.9-1-2.9-2.3-4.4l-2.3-2.7-4.5 2.8c-2.4 1.6-6.8 4.4-9.7 6.3l-5.4 3.4-4.4-4.3c-2.5-2.4-5.5-5.9-6.7-7.6-1.2-1.8-2.4-3.3-2.7-3.3-.3 0-2.4.9-4.7 2zM652.6 23.8c-.3.6-.3 1.8 0 2.6.4 1-.1 2.5-1.1 3.6s-1.4 2.6-1.1 3.8c.4 1.1.1 2.4-.7 3.1-1.2.9-1.5.4-2-2.6-.4-2.1-.2-4.2.5-5 2.1-2.5-1.1-1.4-4.5 1.7l-3.4 3-3.8-3.6c-4.2-4-6.5-4-13.5 0-4 2.2-8.7 7.3-7.7 8.2.3.3-.1 2.1-.9 3.9-1.2 2.9-1.1 3.5.2 4.6 1 .8 1.2 1.5.4 2.3-1.4 1.4-2.3.1-4.8-6.4-6.1-16.7-5.4-15.5-9.5-15.8-2.9-.3-3.7 0-3.7 1.4 0 1.3.6 1.5 3 1 3.4-.6 3.6-.3 6.1 8.4.7 2.5 1.6 4.9 1.9 5.5.4.5 1.3 2.6 2 4.5s2 4.2 2.7 5.1c1.9 2.3 5.3 1.3 5.3-1.5 0-1.2.9-2.7 2-3.4 2-1.2 2.9-4.4 1.1-3.9-.5.1-1-.3-1.1-.8 0-.6.9-1.2 2.2-1.5 2.3-.6 6.6-7 6.7-10.1.3-5.5 9.9 0 10 5.7.1 1.7-.6 3.7-1.4 4.4-.8.7-1.5 1.8-1.5 2.5s-.7 1.8-1.5 2.5c-1.7 1.5-7.5 11.5-7.5 13.2 0 2.4 4-3.4 7.4-10.7.8-1.7 2.8-4 4.5-5.3 2.2-1.6 3.1-3.1 3.1-5.2 0-1.6.5-3.2 1-3.5.6-.4 1 .8 1 2.9 0 3.5 1.4 4.9 2.3 2.3.2-.6.8-.9 1.2-.5 1.3 1.2-2.6 4.8-5.2 4.8-1.2 0-2.3.6-2.3 1.3 0 1.7 6.5 1 8.1-.9 1.5-1.8 2.9-1.8 2.9.1 0 1.1 1.2 1.5 4.9 1.5 2.8 0 5.2.4 5.5.9.5.8-9.5 10.1-10.8 10.1-1.1 0-6.8 4.2-10.8 7.8l-3.6 3.4.4 8.1c.3 4.5.6 8.2.7 8.3.1 0 1.5.4 3 .8 2.4.6 3 .3 3.4-1.4.4-1.5 1.4-2 4.1-2 2.8 0 3.3.3 2.4 1.2-2.4 2.4-1 2.9 8.1 2.6 8-.3 9.2-.5 9.1-2.1-.2-2.4.9-2.1 2.1.5.8 1.9 2.1 2.4 6.5 2.9 3 .3 6.3.2 7.4-.4 3.2-1.6 11.1-8 10.9-8.7-.1-.5.9-1.1 2.2-1.4 2.2-.6 2.5-1.2 2.5-5.6 0-5.5-1.7-6.9-2.2-1.8-.3 3.1-.6 3.3-5 4-2.6.3-5.2.9-5.8 1.3-.6.4-1.7.2-2.5-.5-.7-.6-3.1-1-5.2-.8-3.1.2-3.9.7-4.1 2.5-.4 2.8-3.2 3.1-3.2.3 0-1.8-.7-2-8.9-2-8 0-8.9-.2-9.4-2-.3-1.3-1-1.8-2.1-1.4-1.9.7-2.2 3.4-.3 3.4.8 0 .8.3-.2.9-1.1.7-.7 1 1.5 1.3 2.2.2 2.9.8 3 2.5.1 1.3-.3 2.3-.7 2.3-.5 0-.9-.5-.9-1.1 0-.6-.9-.9-2-.6-1.1.3-3.4-.1-5-1-2.5-1.2-2.9-1.9-2.4-3.9.4-1.4.2-2.4-.5-2.4-.6 0-1.1-.5-1.1-1 0-.6 1.1-.8 2.6-.4 2.3.6 2.5.4 2-1.4-.4-1.1-.2-2.3.4-2.7.5-.3 1-1.4 1-2.4s.9-2.6 2-3.6c1.6-1.5 2-1.5 2.5-.3.3.8.1 2.7-.5 4.3-.8 2-.8 3.1 0 3.9 1.5 1.5 3-1 3-5.1 0-2.7 1-4 6.3-8.4 3.4-2.9 6.3-5.8 6.5-6.5.2-.8.9-1.4 1.7-1.4 3.7 0 15.8-9 14.2-10.6-1.6-1.6-9.7-1.6-12.1 0-1.4.9-3.2 1.6-4.1 1.6-1 0-1.5 1-1.5 2.9 0 3.9-.8 4.3-6.5 3.2-5.5-1-7.5-2.5-5.7-4.3.9-.9 1.3-.7 1.8.5.4 1.1 1.7 1.7 3.5 1.7 4.1 0 4.1-3.8 0-4.6-2.7-.6-2.9-1-3.4-6.3-.2-3.1-.3-5.7-.2-5.9.1-.1 8.6.2 18.9.8 10.3.6 19.2.8 19.7.4 2.7-1.6-.8-2.2-16.8-2.7-9.8-.4-19.2-.9-20.9-1.3-1.8-.3-3.4-.1-3.8.4zM622 37.2c0 1.3-2.3.5-2.8-1-.2-.7.2-1 1.2-.6.9.3 1.6 1.1 1.6 1.6zm30.7 1.5c-.8.9-2.1 1.3-2.7 1.1-.9-.3-.8-.9.4-2.1 1-.9 2.2-1.4 2.8-1.1.6.4.4 1.2-.5 2.1zM619 39c0 .5-.4 1-1 1-.5 0-1-.5-1-1 0-.6.5-1 1-1 .6 0 1 .4 1 1zm60-.1c0 1.2-2.9 3.5-3.6 2.8-1.1-1 .5-3.7 2.1-3.7.8 0 1.5.4 1.5.9zm-6 6.1c0 .5-.4 1-1 1-.5 0-1-.5-1-1 0-.6.5-1 1-1 .6 0 1 .4 1 1zm-27 19.9c0 .5-.7 1.4-1.5 2.1-1.2 1-1.5 1-1.5-.2 0-.8.3-1.8.7-2.1.9-1 2.3-.9 2.3.2zm-5 5.7c0 .8-.5 1.2-1 .9-.6-.4-.8-1.1-.5-1.6.9-1.4 1.5-1.1 1.5.7zm1 7.8c0 2.6-1.5 4.3-2.4 2.8-.7-1.2.4-5.2 1.5-5.2.5 0 .9 1.1.9 2.4zm20.5-.4c.3.5-.1 1-.9 1-.9 0-1.6-.5-1.6-1 0-.6.4-1 .9-1 .6 0 1.3.4 1.6 1zm28.5-.1c0 1.2-2 2.5-2.7 1.8-.7-.7.6-2.7 1.8-2.7.5 0 .9.4.9.9zm-6 1.6c0 .8.5 1.5 1.2 1.5.6 0 .1 1.1-1.2 2.5-1.8 1.9-2.6 2.2-3.7 1.4-1.3-1.1-4.1-.9-7.5.6-1 .4-1.8.3-1.8-.3 0-.5 1.4-1.5 3-2.2 1.7-.7 3-1.9 3-2.6 0-.8.4-1.4.9-1.4s.7.9.4 2c-.8 2.9 1.6 2.5 2.7-.5 1-2.7 3-3.4 3-1zm-17 1c0 .8-.4 1.5-1 1.5-.5 0-1-.7-1-1.5s.5-1.5 1-1.5c.6 0 1 .7 1 1.5zm-5.5 2.3c-1 1-6.5 1.1-6.5.1 0-.8 5-1.7 6.3-1.1.5.2.5.7.2 1z"/><path d="M370.5 24.9c-1.1.5-3.3.6-5 .4-3.9-.6-8.5 1.2-8.5 3.3 0 1.2-.5 1.4-1.7.9-4-1.7-7.3-1.8-7.3-.1 0 1.1.9 1.6 3 1.6 1.7 0 4.2.7 5.5 1.6 3.2 2.1 5.3 1.2 5.7-2.3.3-2.6.7-2.8 4.8-3 2.5-.1 5.4-.3 6.4-.5 2.9-.4 3.3 3 3.7 31l.4 24.7-4.5.3c-2.8.2-5 .9-5.8 2-1 1.4-1.6 1.4-3 .4-3.3-2.3-4.3-2.4-5.7-.6-.8 1.1-1.5 2.4-1.5 3 0 1.5 13.6 1.2 15.2-.3.6-.7 1.7-1.3 2.4-1.3.6 0 2.2-.9 3.5-1.9 2.4-1.9 2.4-1.9 1.6-15.2-.9-15.6-.9-15.6 8-15.4l5.7.2.4 11.4c.1 6.3.5 12 .8 12.8.3.9 1.4 1.1 3.8.7 2-.4 3.7-.2 4.1.4 1.2 2 2.5 1 2.5-2 0-1.7-.5-3-1.1-3-.7 0-.9-.9-.5-2.4.5-1.9.1-2.5-1.6-2.9-2-.6-2-.7-.5-3 1.9-3 3.5-14.7 1.9-14.7-.6 0-1-1.2-.9-2.8.2-2.7.2-2.7-6.3-2.7-6.7 0-11 2-11 5.2 0 1.1-.5 1.1-2 .3-2.7-1.4-2.5-2.2 1-4.2 4-2.3 3.9-4.3-.1-2.3-4.5 2.4-4.7 1-.4-2.9 2.6-2.5 3.6-4 3.1-5.2-.6-1.5-1-1.4-3.4.9-1.6 1.5-3.1 2.7-3.5 2.7-.4 0-.7-3.1-.7-7 0-5.8-.3-7.1-1.9-8-2.3-1.2-3.8-1.2-6.6-.1zm28.9 24.7c-.5 1.9-.4 2.5.5 2 .6-.4 1.1-.3 1.1.2 0 .6-.7 1.2-1.5 1.6-1 .3-1.5 1.9-1.5 4.2 0 3.6-1.2 4.1-1.5.6-.1-.9-.5-3.2-.9-5-.8-3.5.5-6.2 3-6.2 1.1 0 1.3.7.8 2.6zm-.3 20.7c-.1 1.2-1.5.9-1.9-.4-.3-.6.1-1 .8-.8.6.3 1.1.8 1.1 1.2zm-1.1 4.1c0 .3-.4.8-1 1.1-.5.3-1 .1-1-.4 0-.6.5-1.1 1-1.1.6 0 1 .2 1 .4zM696.4 30.5c-.3 1.9-.3 4.6 0 6 .5 2.1 0 2.8-3.6 5.1-2.4 1.5-8.8 6.6-14.3 11.4-5.5 4.8-11.3 9.5-12.8 10.5s-2.4 2.1-2 2.6c1.3 1.2 6.4-.2 7.1-2 1.2-2.8 18.4-18 25.5-22.4 2.5-1.6 2.7-2.2 2.7-8.2 0-7-1.5-8.7-2.6-3zM340 29c0 .5.9 1 2 1s2-.5 2-1c0-.6-.9-1-2-1s-2 .4-2 1zM592 29c0 .5.5 1 1 1 .6 0 1-.5 1-1 0-.6-.4-1-1-1-.5 0-1 .4-1 1zM413.2 31.7c.2.9.8 1.8 1.5 2 .7.3.9-.3.6-1.6-.6-2.5-2.6-2.8-2.1-.4zM587.2 31.1c.2.6.8 1 1.3 1s1.1-.4 1.3-1c.2-.6-.4-1.1-1.3-1.1s-1.5.5-1.3 1.1zM331.3 32.2c-1.3.6-2.3 1.9-2.3 2.9 0 2.3-2 3.5-3 1.9-.9-1.4-4.4.5-9.3 4.9-4.6 4.1-5.7 7.3-5.7 15.6 0 6.8.2 7.7 2 8.2 1.1.3 2.1 1 2.1 1.7.1.6.2 1.7.3 2.5.2 2.1 2.1 2.4 3.6.6 1-1.2 1-1.5-.4-1.5-2.3 0-4.1-5-2.7-7.2 1.5-2.5 1.4-5.9-.3-7.2-1.5-1.2-.5-5.6 1.3-5.6 1.3 0 2.4 8.5 1.6 13.1-.5 3.1-.4 3.9.8 3.9.9 0 2.2.3 3 .6 1.2.4 1.4-.5 1-5.9-.3-3.6-.3-8.9.1-11.8.6-4.6 1.4-6.1 5.5-10.4 2.6-2.8 5.6-5.5 6.7-6.2 1.9-1.2 1.9-1.2-.1-1.2-1.1 0-3 .5-4.2 1.1zm-7.3 8.2c0 .3-.4.8-1 1.1-.5.3-1 .1-1-.4 0-.6.5-1.1 1-1.1.6 0 1 .2 1 .4zm-3.7 4.6c-.5 2-2.1 3.6-2.8 2.8-.5-.4 2.3-4.8 3-4.8.2 0 .1.9-.2 2zM587.3 36c-.6 2.3-1.9 2.6-2.6.7-.3-.8-1.1-.3-2.5 1.3-1.1 1.4-2.4 2.2-2.8 1.8-.4-.4-.1-1.4.6-2.3.7-.9.9-1.9.5-2.3-.4-.4-1-.1-1.2.6-.3.6-3.5 3.2-7.1 5.6-3.7 2.5-7.8 5.3-9 6.4l-2.4 1.8 2.6 3.1c1.4 1.7 2.6 3.5 2.6 4.1 0 .5 2 3.1 4.5 5.8 2.5 2.6 4.5 5.2 4.5 5.8 0 1.5-8.2 9.6-9.7 9.6-.7 0-1.8-1-2.4-2.3-.7-1.2-2.8-4.1-4.8-6.3-2-2.3-4.9-6.2-6.4-8.8-1.6-2.5-3.3-4.6-3.8-4.6s-2.7 1.8-4.9 4-4.6 3.7-5.3 3.4c-.8-.3-2 .2-2.7 1.1-.7.8-2 1.5-3 1.5s-2.3.7-3 1.5c-1.9 2.3-2.6 1.9-5.9-3l-3-4.4 5.2-3.2c2.9-1.8 4.7-3.4 4-3.6-1.4-.5-9.5 4-11.3 6.2-.7.8-1.8 1.5-2.4 1.5-.7 0-2.8 1.6-4.7 3.6-2.9 3.1-3.2 3.7-1.9 4.7.9.7 1.4 1.9 1.2 2.9-.3 1.7 1.4 3.2 3.8 3.3.8 0 1.5.5 1.5 1.2 0 1.7 3.7 4.2 5.3 3.5 1.1-.4 1.1-.6.1-1.3-1-.6-.9-1.2.5-2.8 2.4-2.7 3.9-2.7 3.1-.1-.3 1.1-.3 2 .1 2 1.7 0 11.4-7.3 11.4-8.6 0-1.7 1.2-1.8 2.8-.2.9.9 1.2.9 1.2 0 0-.7.7-1.2 1.5-1.2 1.8 0 1.9 1.2.3 2.8-.9.9-.8 1.6.4 2.9.9 1 3.7 4.9 6.3 8.8 2.6 3.8 4.9 7.2 5.2 7.4.2.3 1.1-.3 2-1.2 1.3-1.2 1.4-1.9.5-3-.7-.8-.9-1.7-.5-2 1-1.1 4.3-.8 4.3.3 0 2.4 3 .6 8.3-4.8 3.1-3.1 6.7-6.4 7.9-7.3 2.9-2.1 1.9-4.4-5.3-12.3l-5.3-5.8 2.2-1.9c1.3-1 2.2-2.4 2-3.1-.3-1.5 2.3-5.8 3.5-5.8.5 0 .6.7.3 1.6-.3.9.7 3.3 2.7 5.9 1.7 2.3 3.7 5.1 4.4 6.1 1 1.7 1.3 1.7 2.3.4.9-1.3 1.3-1.2 3 .8 2.3 2.7 1.6 5.5-1.1 4.7-2.4-.8-2.4.7-.1 2.9 1.1.9 2.5 3.4 3.2 5.7 1.6 4.7 2.5 5.5 4.6 3.8 1.2-1 1.2-1.4.2-2-1-.6-.8-.9.6-.9 1.5 0 1.7.5 1.1 2.7-.3 1.6-1.3 3.5-2.1 4.4-.8.8-1.4 2.2-1.4 2.9 0 .8-1 2.4-2.2 3.7-1.8 1.9-2 2.7-1.1 4.2.9 1.5.7 2.3-1.3 4.4-2.1 2.3-3.1 4.7-2.1 4.7 1.5 0 6.7-3.4 9.1-5.9 2.5-2.6 2.6-3 1.1-3.8-1.5-.9-1.2-1.3 1.9-3.1 2.5-1.5 3.6-2.8 3.6-4.5 0-1.3 1.1-3.4 2.5-4.7 3.1-2.9 3.1-4.3.1-10.6-4.1-8.5-5.6-12.2-5.6-13.3 0-.6-.9-2.8-2-4.8-1.1-2.1-2-4.3-2-5 0-2.2-3.2-9.3-4.2-9.3-.5 0-1.2.9-1.5 2zm1 4.7c.4.3.1 1.3-.6 2.1-1 1.3-.8 1.4 1.1.8 1.7-.6 2.4-.3 3.1 1.6 1.1 2.8.6 3.5-1.3 1.9-.9-.8-1.6-.8-2-.2-.4.5-.2 1.2.4 1.6.5.3 1 1.5 1 2.7 0 1.1.9 3.1 2 4.5s1.7 3 1.3 3.6c-.7 1.2-4.3-2.8-4.3-5 0-1-.6-1.2-2-.8-2.1.7-2.8-.9-1-2 .8-.5.7-1.1-.1-2.1-.6-.7-.9-2-.6-2.8.3-.7.1-1.8-.5-2.4-.8-.8-.8-1.6.2-2.7 1.3-1.6 2.3-1.9 3.3-.8zm-8.9 3.3c2.7 1 3.7 5 1.3 5-2.2 0-2.8-1.2-1.4-2.8 1-1.3.9-1.5-.6-.9-2.2.8-4 0-3.2-1.4.8-1.1.8-1.1 3.9.1zM548 61.9c-.6 1.2-.5 2.2.3 3 .9.9.8 1.4-.3 2.1-3.2 2-4.3 1.2-3.5-2.7.7-3.8 2.2-5.6 3.7-4.7.4.3.4 1.3-.2 2.3zm-27.6 2c1 1.1 1.6 2.8 1.3 3.8-.3 1.5-.6 1.3-1.6-1.1-.8-2.1-1.6-2.7-3.1-2.3-2 .5-2.6-.3-1.3-1.6 1.2-1.2 2.9-.7 4.7 1.2zM595 63c0 .5.9 1.8 2.1 2.9 1.4 1.3 1.7 2.1.9 2.6-1.1.7-6-3.8-6-5.6 0-.5.7-.9 1.5-.9s1.5.4 1.5 1zm-81 3.4c0 .3-.4.8-1 1.1-.5.3-1 .1-1-.4 0-.6.5-1.1 1-1.1.6 0 1 .2 1 .4zm4.7 3.2c-.9.9-2.8-.6-2.1-1.8.4-.6 1-.6 1.7.1.6.6.8 1.3.4 1.7zm38.3 3.8c1.4 2.6 3.2 5.1 4 5.6.8.5 1.1 1.2.7 1.7-.4.4-1.6.2-2.7-.4-1.5-1-1.9-.9-2.4.4-.5 1.2-.9 1.4-1.8.5-.9-.9-.9-1.5-.1-2.3.9-.9.6-1.7-1.3-3.1-3.2-2.6-3.2-8.6 0-7.5.6.2 2.2 2.5 3.6 5.1zm43.6.3c-1.1 1.2-2.7-1.3-2-3.2.7-1.7.8-1.7 1.7.3.6 1.2.7 2.5.3 2.9zM525 71c0 .5-.4 1-1 1-.5 0-1-.5-1-1 0-.6.5-1 1-1 .6 0 1 .4 1 1zm7.5 0c-.3.5-1 1-1.6 1-.5 0-.9-.5-.9-1 0-.6.7-1 1.6-1 .8 0 1.2.4.9 1zM152.3 35.8c-2.9.9-10.3 7.3-10.3 8.9 0 1.6 2.5 1.7 5.3.1 1.2-.7 3.4-1.3 4.9-1.4 3.8-.2 6-1.2 5.3-2.3-.6-1.1-4.4-.9-6.4.3-1.9 1.2-2.7-.3-.9-2 1.9-1.9 8.8-1 8.8 1.3 0 1.7 6.1 1.5 6.7-.3.9-2.7-8.7-6-13.4-4.6z"/><path d="M340.3 42.1c-2.2 1.4-3.6 3.3-4.3 5.9-1.3 4.7-.2 14.6 1.6 16.1.8.6 1.4 1.7 1.4 2.4 0 1.8 6.7 5.8 8.5 5.1 2.3-.9 1.8-2.6-.8-2.6-2.7 0-4.6-1.9-7.1-6.9-3.6-7.5-2.4-17.3 2.1-17.9 1.7-.3 2.1 0 1.7 1.2-.4 1.1 0 1.6 1.2 1.6 1 0 3 1.1 4.4 2.5l2.7 2.6 2.6-2.1c1.5-1.2 3.1-1.8 3.7-1.5 1.5.9.3 2.4-3.5 3.9-3.3 1.4-3.3 1.5-3.7 9-.3 6.8-.1 7.6 1.5 7.6 1.4 0 1.7-.5 1.2-2.1s-.3-2 .6-1.6c.8.2 1.3 1 1.2 1.6-.4 1.6 1.6 1.3 6.4-1 3.3-1.6 4.3-2.6 4.3-4.5 0-1.3-.4-2.4-1-2.4-.5 0-1 .7-1 1.5 0 1.7-4.6 4.2-5.7 3.1-.4-.4.3-1.6 1.7-2.6 2.1-1.6 2.2-2 1-3.6-1.2-1.3-1.2-1.8-.2-2.2 2.5-.8 4.2-3.4 4.2-6.6 0-3.9-1.4-5.3-5.9-6.2-1.7-.4-3.4-1.1-3.7-1.5-.3-.5-2.1-.9-4.1-.9-3.3 0-3.5.1-2.9 2.7l.6 2.8-2.1-2.8c-2.5-3.2-2.5-3.2-6.6-.6zm21.5 3.1c1.4 1.4 1.6 6.8.2 6.8-.5 0-1-.6-1-1.3 0-.8-.9-2.2-1.9-3.1-1.5-1.4-2.4-1.5-4-.7-3.1 1.7-4.2 1.3-2.4-.9 2-2.2 7.2-2.7 9.1-.8zM357 59.5c0 1.4-.4 2.5-1 2.5-.5 0-1-1.1-1-2.5s.5-2.5 1-2.5c.6 0 1 1.1 1 2.5zM225.6 42.8c-.8 1.4 1.9 3.7 4.7 3.9 3.5.2 3.5-1.3-.3-3.2-3.3-1.7-3.7-1.8-4.4-.7z"/><path d="M218.8 43.7c-1.4.2-3.2 1.1-3.8 1.9-.7.8-2 1.4-3 1.4-2.3 0-7 5.5-7 8.2 0 5 10.4 10.2 19.1 9.6 3.6-.2 4.4-.7 4.9-2.6.5-2.2 2.4-2.7 2.6-.7.1.5.2 1.4.3 1.9.2 2 5.1-3.9 5.6-6.8 1-5.9-2.5-12.7-3.8-7.5-.5 1.7-.9 2-1.9 1.2-2.8-2.3-7.8-1.7-7.8.9 0 .6.3.9.6.5.4-.3 1.4.3 2.3 1.5 1.5 1.8 2.1 1.9 4 .9 2-1.1 2.2-1 1.9.6-.2 1.3-1.2 1.8-3.3 1.8-2.5 0-3 .4-3 2.3-.1 3.5-2.3 4.2-9.3 2.7-7.7-1.6-9.4-2.9-9-6.9.3-2.7.7-3.1 3.6-3.4 2-.2 4.7.5 6.8 1.7 4.3 2.5 5.7 2.6 5.2.4-.2-.9-1.4-2-2.8-2.3-2.8-.7-4.1-4-1.6-4 .9 0 1.6.7 1.6 1.6 0 .9.6 1.4 1.2 1.2 1.6-.6 2-6.9.4-6.7-.6.1-2.3.4-3.8.6zM414 46.5c0 .8.8 1.5 1.8 1.5s1.3.3.6.8c-1.3.8-3.4 4.6-3.4 6.1 0 2.1 1.9 1.1 2.2-1.2.2-1.7.9-2.1 2.9-1.9 3 .4 7.9-3.2 6.4-4.6-.5-.5-3.1-1.2-5.7-1.6-3.9-.4-4.8-.3-4.8.9zM246.9 47.7c-.1.5-.2 4.1-.3 8-.1 6.3.1 7.2 1.5 6.8 1-.4 1.8.1 2.1 1.2.3 1 1.5 1.9 2.6 2 1.9.2 2.2-.4 2.4-3.8.1-2.1.2-4.7.2-5.6.1-.9-.5-1.8-1.1-2.1-.8-.2-1.3.6-1.3 2.2 0 1.4-.4 2.6-1 2.6-.5 0-1-1.5-1-3.3 0-1.8-.5-3.8-1.1-4.4-.8-.8-.8-1.3 0-1.7.6-.4 1.1-1.1 1.1-1.7 0-1.1-4-1.3-4.1-.2zM276.5 49.2c-.7 1.8-.8 4.6-.7 9.6.2 3 .7 4.4 2 4.9.9.4 2 1 2.3 1.5.3.5 1.3.6 2.3.2 1.3-.5 1.6-1.3 1.2-3-.8-3.1.5-3 3.4.1l2.3 2.5h-2.1c-1.2 0-2.2.5-2.2 1.1 0 .6 1.1.8 2.8.4 2.1-.4 3.3-.1 4.6 1.4 2.1 2.3.4 4-2.1 1.9-1.4-1.1-1.5-1-.9 1 1 3-.8 2.8-3.2-.3-2.4-3-4.2-3.2-4.2-.6 0 1.1-.5 2.1-1 2.3-.6.2 0 2.2 1.4 4.8 1.4 2.5 2.8 5.2 3.2 6 .3.8 1 2.5 1.5 3.7.9 2.4 5.9 3.4 5.9 1.2 0-.6.9-.9 2-.6 1.1.3 2 .1 2-.4s-.4-.9-1-.9c-.5 0-1-.7-1-1.5 0-1.8 1.2-1.9 2.7-.4 1.6 1.6 16.2-11.7 15.6-14.1-.2-.9-1.6-3-3-4.6-1.4-1.6-3.2-4.3-4.1-5.9-1.3-2.4-1.7-2.6-2-1.3-.2 1 .6 3 1.7 4.4 1.2 1.5 2.1 3.2 2.1 3.9 0 .7.7 1.8 1.5 2.5 1.8 1.5.3 4-2.5 4-1 0-2.3.7-3 1.5-.7.9-2.1 1.3-3.1 1-1.2-.4-2.2.1-3 1.7-1.3 2.5-3.8 4.7-5.3 4.8-.5 0-.1-.9.9-2 1.8-2 1.5-2.4-1.7-2.1-1.3.2-1.8-.5-1.8-2.3 0-2.8 2.6-3.6 4.7-1.5 1.3 1.3 3.3.4 3.3-1.6 0-.7-1.8-3.6-4-6.4-2.2-2.8-4.5-6.2-5-7.6-.5-1.3-2.1-4.2-3.5-6.5-2-3.2-3.1-4-5.5-4-1.7 0-3.3.6-3.5 1.2zm7 4.7c.7 1.2-1.2 2.4-2.5 1.6-1.1-.7-.4-2.5 1-2.5.5 0 1.1.4 1.5.9zm3.5 22c0 1.1.3 2.6.6 3.5.4 1.1.1 1.6-1 1.6-1.2 0-1.6-1-1.6-3.5 0-1.9.5-3.5 1-3.5.6 0 1 .9 1 1.9zM126.4 54.2c-.3.4-.2 1.9.2 3.3.4 1.5.2 2.5-.5 2.5-.6 0-1.1.7-1.1 1.6 0 1.1-.6 1.5-2 1.1-2.6-.7-3.8 1.3-1.7 2.8 1 .7 1.7 1.7 1.7 2.4 0 .6.5 1.1 1.1 1.1.6 0 .8-.7.5-1.6-.5-1.4-.1-1.6 2.3-1.1 3.8.8 4.4-.2 4.6-7.5.2-5.5.1-5.7-2.2-5.6-1.4.2-2.7.6-2.9 1zM614.6 56.9c-.4.5-.2 1.2.3 1.5.5.4 1.2.2 1.5-.3.4-.5.2-1.2-.3-1.5-.5-.4-1.2-.2-1.5.3zM692.5 58.8c-.6.5-4.2 1.4-8 2.1-7.1 1.2-10.4 2.5-9.3 3.6.8.8 13.7-1.5 16.9-3.1 2.8-1.4 4.9-.4 4.9 2.3 0 2.1 1.8 1.5 2.5-.8 1.1-3.3-4.4-6.4-7-4.1zM622.8 65.5c-3 4.9-4 7.5-2.9 7.5 1.3 0 6.3-8.9 5.8-10.3-.2-.7-1.5.6-2.9 2.8zM243.4 66.4c-1.6 1.2-1.7 1.7-.6 2.8 1.1 1.1 1.6 1 2.8-.6 2.6-3.6 1.4-4.8-2.2-2.2zM57 68c0 1.1.5 2 1 2 .6 0 1-.9 1-2s-.4-2-1-2c-.5 0-1 .9-1 2z"/><path d="M276 68.4c0 2.7 1.5 4.2 2.5 2.6.8-1.3-.3-5-1.6-5-.5 0-.9 1.1-.9 2.4zM120.7 69.6c-1.1 1.1-.8 6.2.4 6.9.6.4 1.7-.1 2.4-1.1 1.4-1.8 1.4-1.8 1.5.4 0 1.3-.4 3.2-1 4.2-.8 1.5-.2 2.5 3.6 5.9 2.6 2.3 5.1 4.1 5.6 4.1.6 0 1.9-1.1 2.9-2.4 1.3-1.7 2.5-2.2 4-1.9 1.9.5 2 .4.9-1.6-.9-1.8-1.4-2-2.6-1-1.1.9-1.4.7-1.4-1.4 0-1.4-.4-2.9-1-3.2-.6-.4-1 .8-1 2.9 0 3.5-1.3 4.8-2.3 2.3-.4-.9-.8-.8-1.6.3-.9 1.3-1.2 1.2-2.5-.5-2.5-3.2-2.4-3.4 3.3-5.1 1.1-.3 1.1-.7.1-1.9-.8-1-2.1-1.3-3.3-.9-1.2.4-1.7.2-1.3-.5.4-.5-.7-1.7-2.3-2.5-1.6-.9-3.1-2-3.3-2.6-.2-.6-.7-.8-1.1-.4zM324 71c0 .5-.7.7-1.5.4-1.7-.7-2.1 2.1-.5 3.1 1.5.9 1.2 2.5-.4 2.5-.8 0-1.7.6-2 1.2-.3.9-1.1.5-2.6-1.1-2.5-2.9-3.4-2.3-2.1 1.1 1 2.7 4.3 5.4 10 8.1 3.4 1.7 5.9 1.4 3.1-.3-1.1-.7-1.2-1.2-.3-2.1 1.3-1.3 3.7-.3 2.8 1.2-2 3.1 12.4 3.5 18.3.5 3-1.5 3.2-1.5 4.2.4 1.2 2.2 3.2 2.7 2.8.7-.4-2.3 1.4-5.9 2.7-5.3.8.3 1.9-.2 2.5-1 1.4-1.5 4.2-1.9 3.8-.5-.2.5.2.9.7 1 .8.1 1.2-4.5.6-6.7-.1-.2-1.5.8-3.2 2.2-1.7 1.4-3.9 2.6-5 2.6s-2.7.4-3.7.9c-.9.5-3.7 1.4-6 2.1-3.6.9-4.7.9-6-.3-1-.7-3.3-2-5.2-2.7-1.9-.7-3.9-1.7-4.4-2.2-1.6-1.3-2.6-.9-2 .7.8 2-.3 1.9-3.7-.6-3.1-2.2-4-4.5-1.3-3.5 1.2.5 1.5.2 1-1-.3-.8-.6-1.8-.6-2 0-.2-.4-.4-1-.4-.5 0-1 .4-1 1zm-1 10.2c0 1.6-.3 1.9-1.1 1.1-.6-.6-.8-1.6-.5-2.2 1.1-1.7 1.6-1.3 1.6 1.1zm5-.2c0 .5-.4 1-1 1-.5 0-1-.5-1-1 0-.6.5-1 1-1 .6 0 1 .4 1 1zm13.3 1.7c.4.3.2 1.2-.4 1.9-.8 1-1.5 1.1-3 .1-1-.6-1.9-1.5-1.9-1.9 0-1 4.4-1.1 5.3-.1zM491.5 71.2c-1.1.6-3.7 2.8-5.8 4.8-2.9 2.7-3.9 4.5-4 7-.1 1.9.3 3.5.8 3.6 2.3.2 7.1 1.7 8.2 2.6.7.6 2.5.2 4.9-1.2 2.1-1.1 4.4-2 4.9-2 1.9 0 7.5-6.5 7.5-8.7 0-3.5-5.5-7.3-10.3-7.3-2.3 0-5.1.6-6.2 1.2zm12.3 3.1c3.7 3.4 2.7 6.6-2.8 8.2-1.4.4-3.3 1.4-4.2 2.2-1.8 1.6-3.8 1-3.8-1.3 0-.8-.5-2.2-1.1-3.2-1.5-2.4.4-7 3.3-8.2 2.9-1.1 5.7-.4 8.6 2.3zm-15.6 3.9c-.5.7-1.2 2.4-1.4 3.7-.5 3.7-2.8 3.9-2.8.2 0-1.9.8-3.5 2.2-4.5 2.4-1.7 3.7-1.3 2 .6zm3.2 4.6c.2.4.1 1.4-.4 2.2-.7 1.1-1.2 1.2-2.1.3-.6-.6-.8-1.6-.5-2.2.8-1.3 2.3-1.4 3-.3zM412.8 73c-.4.8-.9 3.1-1 5-.2 2.8-.7 3.5-2.5 3.5-1.1 0-2.5.3-2.9.7-1.1 1.2-5.4 1-5.4-.2s-5.5 1.4-6.5 3.1c-.4.6-.2 1.6.4 2.2.7.7 1.2.6 1.7-.6.9-2.4 2.7-2.1 1.9.3-.6 1.8-.3 1.9 2.7 1.3 3.8-.7 7.3-2.4 10.6-5.2 1.9-1.7 2.3-2.8 2-6.8-.2-2.8-.6-4.2-1-3.3zM274 78.5c-.7.8-.9 1.5-.4 1.5.4 0-.3 1.1-1.6 2.5s-1.9 2.5-1.4 2.5c.6 0 2.3-1.4 3.9-3 2-2.1 2.6-3.3 1.9-4-.8-.8-1.5-.6-2.4.5zM614.1 82.2c-1.1 1.8-2.6 4.2-3.3 5.3-.7 1.1-1.6 2.2-1.9 2.5-1.5 1.2-2.9 5-1.9 5 .6 0 1.3-.8 1.7-1.8.3-.9 1.1-2.4 1.8-3.2 1.9-2.3 6.8-11 6.2-11-.3 0-1.4 1.5-2.6 3.2zM394 81c0 .5.7 1 1.5 1s1.5-.5 1.5-1c0-.6-.7-1-1.5-1s-1.5.4-1.5 1zM584 92.8c-4.6 5.5-8 10.1-8 11 0 .6.7 1.5 1.7 2 1 .6 1.4 1.6.9 2.7-.5 1.4-.9 1.5-2.1.5-1.6-1.3-3.5-.6-3.5 1.4 0 .8 1.6 1.7 3.8 2.1 2 .4 4.5 1.4 5.5 2.2 1.4 1.4 2.2 1.4 4.5.4 7.6-3.5 14.8-8.5 16.2-11.2 1.9-3.5.1-3.6-2.6-.1-2 2.5-2.9 3-4.3 2.2-4.3-2.3-10.6-3.9-11.6-3-3 2.5-3.4-4.6-.5-8 1.1-1.3 2-2.7 2-3.2 0-1.2-.4-1-2 1zm.5 13.2c.4.6 1.1.8 1.6.5 1.4-.9 5.1.5 4.6 1.8-.2.6-1.5 1.4-3 1.8-2.1.6-2.9.2-4.2-1.7-.8-1.3-1.5-2.6-1.5-2.9 0-.9 1.9-.5 2.5.5zm-2.5 4c0 .5-.4 1-1 1-.5 0-1-.5-1-1 0-.6.5-1 1-1 .6 0 1 .4 1 1z"/></svg>