 <svg version="1.0" xmlns="http://www.w3.org/2000/svg" width="700.000000pt" height="117.000000pt" viewBox="0 0 700.000000 117.000000" preserveAspectRatio="xMidYMid meet">
<metadata>
Created by potrace 1.12, written by Peter Selinger 2001-2015
</metadata>
<g transform="translate(0.000000,117.000000) scale(0.100000,-0.100000)" fill="#000000" stroke="none">
<path d="M2685 1156 c-72 -20 -82 -31 -93 -93 -6 -32 -8 -71 -5 -86 3 -15 1
-27 -4 -27 -14 0 -33 22 -33 38 0 8 -7 20 -17 27 -18 13 -10 35 13 35 8 0 14
9 14 20 0 17 -3 19 -18 11 -36 -19 -43 -36 -36 -95 5 -37 11 -56 20 -56 8 0
14 -7 14 -16 0 -11 -6 -14 -20 -9 -17 5 -20 2 -20 -24 0 -30 13 -41 25 -21 8
13 35 13 35 -1 0 -6 -13 -21 -30 -35 -18 -16 -27 -31 -23 -40 3 -9 0 -20 -8
-26 -10 -6 -7 -7 10 -3 21 6 23 5 18 -15 -8 -29 2 -80 16 -80 6 0 8 25 5 68
-6 78 -3 92 23 92 14 0 19 7 19 30 0 17 5 30 10 30 6 0 10 -22 10 -50 0 -27
-4 -50 -10 -50 -5 0 -10 5 -10 10 0 6 -4 10 -8 10 -4 0 -7 -57 -6 -126 1 -106
4 -128 18 -136 17 -10 22 -48 6 -48 -5 0 -10 5 -10 12 0 6 -11 1 -25 -12 -13
-12 -22 -27 -19 -32 4 -6 11 -5 17 1 6 6 15 11 19 11 15 0 8 -26 -12 -43 -23
-20 -27 -42 -5 -33 8 3 15 1 15 -5 0 -20 -21 -49 -36 -49 -11 0 -13 4 -5 17 6
12 5 20 -7 29 -11 8 -15 26 -14 63 0 28 -3 51 -7 51 -13 0 -19 -62 -9 -89 5
-14 6 -32 2 -40 -13 -31 -10 -65 8 -83 19 -19 47 -22 122 -12 35 5 46 11 46
25 0 23 21 69 32 69 4 0 8 4 8 9 0 6 -24 11 -52 13 -50 3 -53 4 -49 28 3 14 5
172 6 352 0 216 4 331 11 338 6 6 42 16 80 21 38 6 77 15 88 21 12 6 22 6 29
-1 13 -13 77 -15 77 -2 0 22 -156 27 -225 7z m-85 -235 c0 -6 -4 -13 -10 -16
-5 -3 -10 1 -10 9 0 9 5 16 10 16 6 0 10 -4 10 -9z m10 -196 c0 -8 -4 -15 -10
-15 -5 0 -10 7 -10 15 0 8 5 15 10 15 6 0 10 -7 10 -15z m0 -363 c0 -5 -9 -17
-20 -27 -16 -14 -20 -15 -20 -4 0 16 19 39 32 39 4 0 8 -4 8 -8z m-50 -62 c0
-5 -7 -10 -15 -10 -8 0 -15 5 -15 10 0 6 7 10 15 10 8 0 15 -4 15 -10z"></path>
<path d="M1120 1136 c-73 -34 -77 -38 -51 -48 20 -7 21 -10 10 -24 -8 -9 -14
-24 -14 -32 0 -8 -6 -17 -12 -19 -7 -3 -13 3 -13 13 0 16 -1 16 -20 -1 -12
-10 -19 -24 -16 -31 3 -7 -8 -45 -24 -86 -15 -40 -31 -88 -35 -105 -6 -32 -6
-33 24 -27 42 9 40 -9 -4 -36 -29 -18 -38 -20 -50 -10 -8 7 -15 19 -15 27 0 8
-11 28 -25 45 -14 16 -25 38 -25 48 0 10 -8 28 -18 40 -17 21 -20 21 -87 9
-74 -13 -171 -64 -182 -97 -3 -9 -15 -27 -25 -39 -15 -16 -17 -26 -10 -40 6
-11 7 -25 3 -32 -10 -15 -32 17 -51 74 -12 35 -45 104 -70 145 -5 8 -30 59
-55 113 -25 54 -53 101 -61 104 -17 6 -120 -14 -144 -28 -8 -5 -25 -13 -37
-19 -13 -5 -23 -14 -23 -20 0 -6 -16 -18 -35 -26 -26 -11 -35 -20 -35 -38 0
-27 28 -44 35 -21 3 8 7 22 10 31 6 20 25 8 25 -16 0 -29 -11 -50 -26 -50 -8
0 -14 -10 -14 -26 0 -19 4 -25 15 -21 18 7 31 -11 18 -24 -7 -7 -6 -23 3 -47
7 -20 13 -47 14 -59 0 -12 5 -25 10 -28 6 -4 20 -28 31 -53 45 -101 72 -159
99 -217 16 -33 42 -90 59 -127 17 -36 35 -69 40 -73 39 -24 221 -15 221 11 0
17 12 18 27 3 22 -22 133 84 133 125 0 9 3 16 8 16 8 0 52 -95 52 -114 0 -7 9
-21 20 -31 30 -27 173 -16 227 18 86 54 77 76 -24 57 -61 -12 -67 -11 -80 5
-12 18 -13 18 -13 -2 0 -21 -62 -68 -74 -56 -12 13 -5 43 9 43 9 0 20 12 25
26 6 14 14 23 19 19 24 -14 20 21 -9 83 -36 77 -42 90 -65 154 -28 81 -56 80
-32 -1 9 -30 11 -51 5 -51 -5 0 -12 9 -15 20 -3 11 -8 20 -12 20 -13 0 -54
-113 -66 -185 -10 -60 -22 -77 -45 -65 -13 7 -31 5 -60 -5 -24 -8 -57 -15 -74
-15 -31 0 -32 2 -45 63 -7 34 -19 69 -26 77 -20 23 -81 149 -101 208 -10 29
-27 60 -37 70 -19 16 -19 16 -12 -18 4 -19 13 -48 20 -65 19 -44 24 -74 14
-81 -19 -11 -8 -24 16 -18 33 8 33 -15 0 -46 l-24 -23 -11 27 c-5 15 -10 36
-10 46 0 10 -5 20 -11 22 -9 3 -9 10 0 27 7 12 9 26 5 29 -4 4 -9 1 -11 -5 -3
-7 -10 -13 -16 -13 -14 0 -39 49 -31 61 8 14 24 10 24 -6 0 -8 4 -15 10 -15
10 0 5 44 -11 94 -11 36 -4 46 16 20 22 -29 19 3 -5 54 -11 22 -20 50 -20 61
0 11 -11 37 -25 57 -14 20 -25 43 -25 50 0 7 -7 17 -17 22 -25 15 -8 40 34 51
64 16 75 17 83 1 19 -34 89 -197 95 -219 4 -12 18 -39 31 -58 13 -20 24 -42
24 -49 0 -8 13 -35 29 -61 16 -27 33 -61 37 -78 4 -16 13 -39 20 -50 8 -11 14
-30 14 -42 0 -13 5 -23 10 -23 16 0 50 38 50 56 0 9 6 30 14 47 14 34 51 153
61 200 5 25 3 28 -15 22 -11 -3 -20 -2 -20 3 0 14 28 35 37 29 5 -3 33 1 62 9
57 14 81 8 81 -23 0 -7 20 -55 43 -106 69 -145 77 -164 77 -179 0 -15 30 -48
43 -48 4 0 7 9 7 19 0 11 5 23 10 26 6 3 10 16 10 28 0 12 14 53 30 92 17 38
30 71 30 72 0 2 -10 1 -23 -2 -20 -5 -23 -2 -22 21 0 15 6 29 13 32 7 2 12 -5
12 -18 0 -19 2 -20 15 -10 8 7 15 18 15 24 0 7 9 29 20 51 25 48 25 71 3 84
-17 9 -17 10 2 17 42 15 48 26 23 46 -17 13 -19 18 -7 18 21 0 54 38 66 75 12
36 32 42 75 21 37 -19 71 -21 66 -4 -7 19 -60 46 -94 47 -30 1 -64 -24 -64
-46 0 -13 -24 -23 -53 -23 l-22 1 23 19 c12 10 27 20 34 22 6 2 9 9 7 14 -2 7
-21 3 -49 -10z m40 -70 c0 -10 -52 -36 -61 -31 -16 11 10 35 37 35 13 0 24 -2
24 -4z m-1015 -36 c4 -16 13 -30 21 -30 20 0 17 -13 -6 -28 -23 -14 -27 -37
-6 -29 20 8 27 -3 16 -23 -6 -11 -4 -25 4 -42 8 -15 10 -31 5 -39 -7 -12 -24
-6 -24 9 0 4 -5 21 -12 37 -6 17 -15 39 -19 50 -15 41 -11 125 6 125 5 0 11
-13 15 -30z m960 -29 c3 -5 1 -12 -5 -16 -5 -3 -10 1 -10 9 0 18 6 21 15 7z
m-25 -39 c0 -13 -12 -22 -22 -16 -10 6 -1 24 13 24 5 0 9 -4 9 -8z m-27 -74
c6 -23 1 -38 -13 -38 -5 0 -8 14 -8 30 1 35 13 40 21 8z m-819 -9 c-3 -5 -10
-7 -15 -3 -5 3 -7 10 -3 15 3 5 10 7 15 3 5 -3 7 -10 3 -15z m783 -5 c-9 -9
-28 6 -21 18 4 6 10 6 17 -1 6 -6 8 -13 4 -17z m88 17 c7 -12 -12 -24 -25 -16
-11 7 -4 25 10 25 5 0 11 -4 15 -9z m-855 -45 c0 -3 -4 -8 -10 -11 -5 -3 -10
-1 -10 4 0 6 5 11 10 11 6 0 10 -2 10 -4z m385 -26 c3 -6 -1 -13 -10 -16 -19
-8 -30 0 -20 15 8 14 22 14 30 1z m363 -2 c-6 -18 -28 -21 -28 -4 0 9 7 16 16
16 9 0 14 -5 12 -12z m-800 -23 c-2 -14 -7 -26 -13 -26 -5 0 -11 12 -13 26 -2
18 1 25 13 25 12 0 15 -7 13 -25z m457 -15 c3 -5 -1 -10 -9 -10 -9 0 -16 5
-16 10 0 6 4 10 9 10 6 0 13 -4 16 -10z m-41 -9 c3 -5 -1 -12 -10 -15 -20 -8
-29 -1 -19 13 8 13 22 14 29 2z m-369 -41 c-5 -8 -11 -8 -17 -2 -6 6 -7 16 -3
22 5 8 11 8 17 2 6 -6 7 -16 3 -22z m329 -11 c-3 -5 -10 -7 -15 -3 -5 3 -7 10
-3 15 3 5 10 7 15 3 5 -3 7 -10 3 -15z m66 12 c0 -13 -26 -32 -33 -24 -8 7 11
33 24 33 5 0 9 -4 9 -9z m-470 -31 c0 -5 -4 -10 -10 -10 -5 0 -10 5 -10 10 0
6 5 10 10 10 6 0 10 -4 10 -10z m780 2 c0 -13 -12 -22 -22 -16 -10 6 -1 24 13
24 5 0 9 -4 9 -8z m70 4 c0 -3 -4 -8 -10 -11 -5 -3 -10 -1 -10 4 0 6 5 11 10
11 6 0 10 -2 10 -4z m-410 -36 c0 -5 -10 -10 -22 -10 -19 0 -20 2 -8 10 19 13
30 13 30 0z m390 0 c0 -5 -7 -10 -16 -10 -8 0 -12 5 -9 10 3 6 10 10 16 10 5
0 9 -4 9 -10z m-406 -60 c-5 -4 -19 -11 -31 -15 -17 -4 -23 -2 -23 9 0 8 9 18
20 21 11 3 20 12 20 18 0 7 5 4 11 -6 6 -11 7 -22 3 -27z m-348 -25 c3 -22 8
-43 10 -47 2 -4 0 -9 -5 -13 -20 -12 -39 54 -32 110 2 21 21 -13 27 -50z m754
10 c0 -26 -14 -33 -25 -15 -9 14 1 40 15 40 5 0 10 -11 10 -25z m-230 -72 c1
-22 25 -55 33 -46 4 3 7 2 7 -4 0 -20 -26 -34 -38 -20 -17 20 -33 68 -26 78 9
15 24 10 24 -8z m50 7 c0 -5 -4 -10 -10 -10 -5 0 -10 5 -10 10 0 6 5 10 10 10
6 0 10 -4 10 -10z m-456 -28 c5 -9 -15 -28 -52 -49 -29 -17 -42 -16 -42 2 0 8
6 15 13 15 8 0 22 9 32 20 19 21 40 26 49 12z m-94 -12 c0 -5 -2 -10 -4 -10
-3 0 -8 5 -11 10 -3 6 -1 10 4 10 6 0 11 -4 11 -10z m120 -44 c0 -8 7 -26 14
-42 8 -15 13 -31 10 -36 -3 -4 2 -8 10 -8 9 0 16 8 16 18 0 13 2 14 9 4 18
-29 -12 -91 -45 -92 -13 0 -58 79 -50 87 3 4 20 -9 36 -27 16 -18 32 -31 35
-28 3 3 -1 12 -9 21 -18 17 -56 114 -48 121 8 8 22 -4 22 -18z m50 -32 c0 -8
-4 -12 -10 -9 -5 3 -10 13 -10 21 0 8 5 12 10 9 6 -3 10 -13 10 -21z m424 -13
c3 -5 -1 -14 -9 -21 -12 -10 -15 -9 -15 4 0 9 -4 16 -10 16 -5 0 -10 -4 -10
-10 0 -5 -5 -10 -11 -10 -8 0 -8 5 1 15 14 16 46 20 54 6z m-536 -22 c-2 -6
-8 -10 -13 -10 -5 0 -11 4 -13 10 -2 6 4 11 13 11 9 0 15 -5 13 -11z m17 -49
c3 -5 1 -10 -4 -10 -6 0 -11 5 -11 10 0 6 2 10 4 10 3 0 8 -4 11 -10z m285
-10 c-19 -12 -40 -13 -40 -1 0 9 40 20 50 13 2 -2 -2 -7 -10 -12z m-120 -8 c0
-10 -22 -32 -32 -32 -13 0 -9 28 5 33 19 8 27 8 27 -1z m420 -22 c0 -5 -4 -10
-10 -10 -5 0 -10 5 -10 10 0 6 5 10 10 10 6 0 10 -4 10 -10z"></path>
<path d="M1897 1146 c-6 -16 19 -30 28 -16 4 6 36 10 72 10 l65 0 -6 -97 c-4
-54 -12 -133 -18 -175 -5 -43 -7 -85 -4 -94 6 -15 9 -15 30 5 39 37 118 61
200 61 70 0 76 -2 118 -36 23 -19 51 -45 61 -56 22 -26 31 -19 18 13 -5 14
-36 44 -69 67 l-60 42 -94 -10 c-87 -9 -150 -28 -163 -51 -14 -22 -27 -7 -21
24 4 17 14 92 21 166 11 98 12 138 4 148 -16 19 -175 18 -182 -1z"></path>
<path d="M1819 1078 c-33 -36 -49 -68 -35 -68 2 0 25 25 51 55 54 64 41 75
-16 13z"></path>
<path d="M2970 1102 c0 -6 11 -17 25 -26 14 -9 25 -22 25 -29 0 -6 9 -23 20
-37 44 -57 12 -185 -63 -251 l-42 -36 40 -49 c21 -27 40 -51 42 -53 2 -2 6 -1
9 2 4 4 -5 22 -20 41 -31 42 -32 52 -6 66 11 6 29 32 40 58 11 26 25 55 30 64
5 10 13 42 16 71 7 57 -2 77 -61 145 -24 28 -55 47 -55 34z"></path>
<path d="M1866 1068 c-13 -18 -24 -42 -23 -53 2 -14 -6 -21 -28 -25 -29 -5
-30 -8 -36 -65 -4 -43 -2 -64 7 -75 12 -12 16 -12 28 5 19 26 28 16 20 -24 -6
-26 -10 -31 -31 -28 -14 2 -33 14 -43 27 -10 14 -22 21 -26 17 -4 -4 2 -17 13
-30 24 -27 53 -84 53 -106 0 -13 -18 -19 -87 -29 -92 -12 -153 -30 -153 -45 0
-5 8 -6 18 -2 34 15 112 18 112 5 0 -6 -9 -14 -20 -17 -30 -8 -24 -23 10 -23
17 0 30 4 30 9 0 5 14 14 30 20 17 5 30 15 30 21 0 6 10 10 23 8 20 -3 22 -8
19 -53 -2 -27 -6 -52 -9 -55 -2 -3 -13 7 -24 22 l-20 27 -88 -45 c-91 -45
-150 -56 -192 -34 -27 15 -24 30 6 30 18 0 25 5 25 20 0 23 18 26 34 5 14 -19
96 -9 96 12 0 19 -30 29 -40 12 -7 -11 -13 -11 -37 1 -15 8 -32 21 -36 27 -11
18 -37 16 -37 -1 0 -23 -22 -31 -34 -13 -11 14 -14 14 -34 -2 l-23 -17 20 -19
c12 -10 21 -26 21 -36 0 -29 40 -49 98 -49 43 0 69 8 134 42 l81 41 24 -29
c12 -16 21 -33 20 -39 -7 -19 -83 -64 -129 -75 -25 -6 -55 -18 -65 -26 -16
-14 -14 -15 27 -9 25 3 56 14 70 23 14 9 29 15 34 14 5 -2 22 9 37 24 27 26
29 26 29 8 0 -25 -38 -63 -71 -70 -13 -3 -28 -7 -34 -8 -5 -2 -25 -7 -43 -11
-18 -4 -35 -12 -38 -16 -7 -12 -54 -11 -54 0 0 6 5 13 10 16 23 15 7 22 -40
17 -78 -7 -190 51 -190 100 0 10 -4 18 -10 18 -13 0 -13 -24 2 -72 8 -27 18
-40 35 -44 12 -4 23 -10 23 -15 0 -5 22 -9 49 -9 33 0 56 -6 73 -20 14 -10 28
-16 32 -13 3 3 6 1 6 -5 0 -15 -56 -16 -65 -2 -9 15 -25 12 -25 -5 0 -8 7 -15
15 -15 8 0 15 -5 15 -11 0 -7 -12 -9 -35 -5 -22 4 -35 3 -35 -4 0 -5 -7 -10
-15 -10 -8 0 -15 -4 -15 -10 0 -12 9 -12 144 0 61 6 116 16 123 22 7 6 28 14
46 17 26 6 31 11 29 29 -2 16 1 20 11 16 10 -3 18 2 22 15 11 36 33 24 40 -22
4 -24 11 -50 15 -57 11 -17 125 -27 134 -11 4 6 23 11 42 11 19 0 34 3 34 8 0
4 4 13 9 21 7 11 15 9 41 -10 27 -21 43 -24 114 -24 75 0 85 2 115 28 21 18
40 26 52 22 14 -5 24 5 44 44 24 49 22 68 -5 36 -9 -11 -16 -13 -24 -5 -5 5
-50 10 -99 10 -97 0 -156 13 -200 43 -29 20 -26 22 -42 -28 -3 -10 -19 -16
-45 -16 -22 -1 -45 -2 -52 -3 -7 -1 -12 19 -13 52 -2 59 -7 67 -41 67 -27 1
-32 -12 -9 -21 20 -8 19 -24 -1 -24 -10 0 -14 -6 -11 -15 8 -19 -9 -29 -20
-13 -25 41 -1 108 39 108 15 0 17 4 9 18 -7 13 -6 23 2 32 9 10 9 14 0 17 -20
7 -16 51 6 58 26 8 33 43 25 120 -8 79 -24 86 -24 10 0 -30 -4 -55 -9 -55 -13
0 -21 27 -15 45 4 8 1 21 -5 29 -14 16 3 72 25 80 14 5 21 56 7 56 -4 0 -17
-10 -30 -22 -26 -24 -44 -17 -25 10 7 9 17 29 23 45 6 15 17 27 25 27 16 0 20
45 5 55 -5 3 -21 -9 -35 -27z m-29 -169 c-7 -11 -15 -15 -21 -9 -13 13 1 41
18 34 12 -5 13 -9 3 -25z m17 -178 c-11 -23 -20 -29 -27 -22 -7 7 -7 14 1 23
7 9 7 19 2 28 -12 19 11 33 28 17 10 -11 9 -19 -4 -46z m46 4 c0 -8 -4 -15
-10 -15 -5 0 -10 7 -10 15 0 8 5 15 10 15 6 0 10 -7 10 -15z m-40 -105 c0 -5
-4 -10 -10 -10 -5 0 -10 5 -10 10 0 6 5 10 10 10 6 0 10 -4 10 -10z m256 -198
c6 -4 11 -18 10 -31 0 -13 5 -26 12 -28 7 -3 12 4 12 16 0 16 6 21 24 21 34 0
41 -16 11 -24 -14 -4 -25 -11 -25 -16 0 -6 -7 -10 -15 -10 -8 0 -19 -9 -25
-21 -15 -26 -25 -16 -25 24 -1 18 -4 42 -9 55 -8 23 7 30 30 14z m-266 -16 c0
-3 -4 -8 -10 -11 -5 -3 -10 -1 -10 4 0 6 5 11 10 11 6 0 10 -2 10 -4z m470
-27 c0 -12 -41 -59 -52 -59 -5 0 -6 9 -3 20 5 15 2 20 -13 20 -11 0 -25 -7
-32 -15 -10 -12 -9 -16 4 -21 22 -8 20 -24 -3 -24 -60 0 -25 70 45 87 41 10
54 8 54 -8z m-280 4 c0 -11 -32 -43 -44 -43 -6 0 -16 -8 -23 -19 -15 -24 -53
-34 -53 -14 0 8 9 17 20 20 29 8 19 27 -16 33 -19 4 -25 8 -16 13 6 5 16 5 22
2 5 -3 18 -1 27 4 20 12 83 15 83 4z m-175 -43 c4 -6 11 -8 16 -5 11 7 11 3 3
-19 -5 -14 -8 -14 -30 0 -13 9 -21 20 -18 25 7 12 21 11 29 -1z m-225 -25 c0
-17 -2 -18 -24 -9 -23 9 -20 24 4 24 11 0 20 -7 20 -15z"></path>
<path d="M1328 1042 c-9 -20 -20 -53 -24 -72 -3 -19 -10 -41 -15 -50 -15 -25
-59 -152 -76 -215 -8 -33 -19 -64 -23 -70 -4 -5 -11 -26 -15 -45 -4 -19 -16
-50 -26 -70 -10 -19 -21 -48 -25 -64 -12 -51 18 -25 37 32 10 29 25 59 33 68
9 8 16 26 16 39 0 13 8 28 17 34 14 7 15 12 5 24 -10 11 -8 18 9 33 12 10 25
29 30 42 5 12 15 22 24 22 19 0 20 -16 1 -27 -13 -8 -36 -45 -36 -59 0 -3 7 0
17 7 13 11 17 11 20 2 8 -22 23 -14 23 12 0 33 18 71 61 131 31 42 47 54 98
73 55 20 66 21 123 10 35 -6 71 -18 80 -26 9 -8 22 -12 28 -8 18 11 -5 30 -52
44 -24 7 -51 17 -60 22 -25 13 -49 11 -79 -5 -14 -7 -39 -16 -55 -20 -46 -12
-126 -64 -166 -109 -37 -42 -37 -42 -38 -15 0 15 4 29 9 32 5 3 15 30 22 58 6
29 18 62 25 73 7 11 16 37 19 58 4 20 11 40 16 43 11 6 12 34 2 34 -5 0 -16
-17 -25 -38z"></path>
<path d="M4007 1072 c-3 -4 -2 -14 3 -22 7 -11 11 -11 23 -1 9 7 34 11 59 9
l43 -3 -3 -47 c-2 -29 0 -48 7 -48 12 0 24 57 19 91 -3 22 -8 24 -75 27 -39 2
-74 -1 -76 -6z"></path>
<path d="M2744 1058 c-14 -22 -18 -188 -5 -188 6 0 11 17 11 39 0 45 6 52 37
40 25 -9 43 -38 53 -86 9 -37 0 -47 -47 -58 -34 -7 -46 -25 -17 -25 9 0 34 5
55 12 33 9 38 15 34 32 -3 12 -2 15 1 9 3 -7 10 -13 15 -13 19 0 69 44 69 61
0 10 5 21 10 24 17 11 11 55 -12 88 -42 62 -67 76 -135 77 -39 0 -65 -5 -69
-12z m73 -33 c18 -13 22 -13 33 0 19 23 27 19 55 -25 28 -45 33 -88 9 -97 -8
-3 -20 -17 -25 -31 -7 -18 -13 -22 -20 -15 -8 8 -8 17 0 32 9 15 8 25 -1 40
-9 15 -9 25 0 45 7 16 8 27 2 31 -6 4 -13 -1 -16 -9 -8 -21 -16 -20 -44 4 -13
11 -25 18 -28 15 -2 -2 10 -16 27 -30 45 -38 38 -50 -11 -21 -45 27 -53 38
-44 61 7 19 36 19 63 0z"></path>
<path d="M3938 1013 c-7 -9 -14 -47 -17 -87 -2 -40 -9 -75 -16 -81 -7 -5 -15
-34 -18 -63 -5 -47 -4 -52 8 -42 8 7 15 28 15 47 0 26 5 36 19 40 11 3 22 15
25 26 l6 22 19 -24 c30 -40 41 -18 41 84 l0 93 -35 0 c-19 0 -40 -7 -47 -15z
m31 -44 c-15 -9 -32 -2 -24 11 3 5 13 6 21 3 12 -4 13 -8 3 -14z m17 -25 c-3
-9 -6 -18 -6 -20 0 -2 -7 -4 -15 -4 -13 0 -13 3 -3 20 15 24 33 27 24 4z"></path>
<path d="M4475 943 c-34 -11 -72 -35 -118 -75 -59 -53 -69 -59 -84 -47 -14 12
-15 11 -7 -11 5 -14 8 -43 7 -65 -2 -36 2 -43 42 -75 25 -19 46 -44 47 -55 3
-40 3 -44 10 -51 4 -4 12 6 18 21 10 27 11 27 30 10 38 -34 125 -77 155 -76
11 0 30 1 42 1 12 0 27 10 34 21 21 41 -7 84 -68 103 -32 10 -29 -10 4 -26 37
-18 53 -46 33 -58 -11 -7 -16 -5 -18 6 -3 12 -11 14 -30 9 -22 -5 -24 -4 -13
9 16 19 6 37 -15 29 -14 -5 -15 -3 -5 16 14 26 9 35 -27 54 -83 42 -132 82
-132 109 0 35 -18 17 -25 -24 -8 -45 -22 -71 -35 -63 -4 2 -5 15 -3 29 4 17 0
25 -12 28 -27 5 24 73 55 73 17 0 26 6 28 20 7 34 32 53 83 64 93 20 187 7
225 -31 12 -12 13 -20 3 -41 -18 -40 -47 -45 -73 -12 -20 25 -27 27 -62 21
-68 -13 -94 -55 -56 -89 24 -22 29 -21 35 4 3 12 10 18 17 14 6 -4 8 -14 5
-24 -5 -18 58 -72 122 -105 37 -18 83 -75 83 -101 0 -9 -18 -39 -41 -66 -43
-51 -104 -79 -176 -79 -18 0 -33 -4 -33 -10 0 -5 23 -10 50 -10 28 0 50 -3 50
-8 0 -13 -74 -30 -112 -25 -34 5 -38 3 -38 -17 0 -19 4 -22 27 -17 25 5 26 4
9 -8 -10 -8 -24 -11 -32 -8 -8 3 -21 0 -29 -7 -10 -9 -15 -9 -15 -1 0 6 5 11
10 11 19 0 10 42 -10 47 -11 3 -20 9 -20 14 0 14 21 22 32 11 7 -7 18 -7 34 0
30 14 31 26 2 26 -13 0 -42 3 -66 7 -36 7 -45 5 -57 -11 -7 -10 -17 -16 -21
-11 -4 4 -17 1 -30 -7 -12 -8 -24 -12 -28 -9 -10 11 -7 48 6 61 17 17 28 15
28 -4 0 -9 6 -14 13 -11 16 5 9 50 -9 60 -19 11 -8 28 13 20 14 -5 15 0 11 34
-4 24 -1 46 5 52 16 16 1 24 -22 11 -12 -6 -28 -26 -36 -45 -9 -24 -21 -35
-34 -35 -14 0 -23 -9 -27 -27 -3 -16 -12 -42 -20 -60 -23 -52 -15 -80 14 -51
20 20 14 -7 -8 -35 -22 -28 -20 -31 28 -42 18 -3 46 -14 63 -22 25 -12 50 -14
115 -10 45 3 91 10 101 15 10 6 38 16 62 23 28 8 47 21 54 36 6 14 16 22 25
18 21 -8 73 34 70 56 -2 13 6 24 21 32 29 14 45 66 37 116 -7 43 -55 95 -118
127 -27 13 -48 30 -48 38 0 17 32 46 52 46 22 0 68 81 61 108 -5 21 -44 40
-128 62 -50 13 -68 12 -130 -7z m150 -143 c0 -19 -18 -22 -40 -7 -12 9 -16 20
-12 32 7 16 9 16 30 2 12 -8 22 -20 22 -27z m-238 -87 c-2 -10 -8 -26 -12 -35
-5 -13 -2 -18 9 -18 9 0 16 -4 16 -10 0 -16 -19 -12 -41 9 -17 16 -18 19 -4
31 8 7 15 19 15 26 0 8 5 14 11 14 6 0 9 -8 6 -17z m133 -70 c0 -21 -38 -15
-50 7 -6 11 -16 20 -23 19 -7 -1 -19 -1 -27 0 -12 1 -12 3 -2 10 17 10 102
-20 102 -36z m-72 -30 c6 -19 -25 -16 -32 3 -4 11 -1 14 11 12 9 -2 18 -9 21
-15z m60 -25 c17 -17 15 -28 -6 -28 -19 0 -42 18 -42 32 0 12 35 9 48 -4z
m-228 -113 c0 -8 -4 -15 -10 -15 -5 0 -10 7 -10 15 0 8 5 15 10 15 6 0 10 -7
10 -15z m-30 -45 c0 -5 -4 -10 -10 -10 -5 0 -10 5 -10 10 0 6 5 10 10 10 6 0
10 -4 10 -10z m430 -20 c0 -5 -7 -10 -16 -10 -8 0 -12 5 -9 10 3 6 10 10 16
10 5 0 9 -4 9 -10z m-287 -35 c-3 -8 -9 -15 -14 -15 -10 0 -12 24 -3 33 11 11
24 -3 17 -18z m-108 -45 c4 -6 15 -8 26 -5 23 8 26 -13 3 -22 -9 -3 -25 3 -37
16 -12 11 -16 21 -10 21 7 0 15 -5 18 -10z m125 -30 c0 -5 -13 -10 -29 -10
-17 0 -33 5 -36 10 -4 6 8 10 29 10 20 0 36 -4 36 -10z"></path>
<path d="M5353 920 c-63 -28 -183 -145 -128 -124 19 8 19 -10 0 -26 -13 -11
-13 -16 1 -42 8 -16 23 -32 32 -35 9 -4 23 -15 30 -25 7 -10 16 -18 20 -18 13
0 29 48 21 62 -5 7 -9 20 -9 28 1 15 19 -4 40 -40 5 -8 11 -12 15 -8 4 3 -6
25 -21 47 -26 39 -44 52 -44 31 0 -16 -12 -11 -45 15 l-29 24 24 26 c27 28 40
32 40 10 0 -8 -4 -15 -10 -15 -14 0 -13 -27 2 -36 6 -4 14 -2 16 4 7 22 20 12
53 -38 29 -45 49 -63 49 -42 0 8 -49 84 -79 124 -27 34 -27 34 11 52 42 21 53
20 71 -6 8 -13 37 -47 65 -76 l51 -53 58 37 c32 21 78 51 102 68 41 28 45 29
55 12 6 -10 16 -25 23 -34 12 -16 12 -16 13 0 0 9 -10 29 -23 44 l-23 27 -45
-28 c-24 -16 -68 -44 -97 -63 l-54 -34 -44 43 c-25 24 -55 59 -67 76 -12 18
-24 33 -27 33 -3 0 -24 -9 -47 -20z"></path>
<path d="M6526 932 c-3 -6 -3 -18 0 -26 4 -10 -1 -25 -11 -36 -10 -11 -14 -26
-11 -38 4 -11 1 -24 -7 -31 -12 -9 -15 -4 -20 26 -4 21 -2 42 5 50 21 25 -11
14 -45 -17 l-34 -30 -38 36 c-42 40 -65 40 -135 0 -40 -22 -87 -73 -77 -82 3
-3 -1 -21 -9 -39 -12 -29 -11 -35 2 -46 10 -8 12 -15 4 -23 -14 -14 -23 -1
-48 64 -61 167 -54 155 -95 158 -29 3 -37 0 -37 -14 0 -13 6 -15 30 -10 34 6
36 3 61 -84 7 -25 16 -49 19 -55 4 -5 13 -26 20 -45 7 -19 20 -42 27 -51 19
-23 53 -13 53 15 0 12 9 27 20 34 20 12 29 44 11 39 -5 -1 -10 3 -11 8 0 6 9
12 22 15 23 6 66 70 67 101 3 55 99 0 100 -57 1 -17 -6 -37 -14 -44 -8 -7 -15
-18 -15 -25 0 -7 -7 -18 -15 -25 -17 -15 -75 -115 -75 -132 0 -24 40 34 74
107 8 17 28 40 45 53 22 16 31 31 31 52 0 16 5 32 10 35 6 4 10 -8 10 -29 0
-35 14 -49 23 -23 2 6 8 9 12 5 13 -12 -26 -48 -52 -48 -12 0 -23 -6 -23 -13
0 -17 65 -10 81 9 15 18 29 18 29 -1 0 -11 12 -15 49 -15 28 0 52 -4 55 -9 5
-8 -95 -101 -108 -101 -11 0 -68 -42 -108 -78 l-36 -34 4 -81 c3 -45 6 -82 7
-83 1 0 15 -4 30 -8 24 -6 30 -3 34 14 4 15 14 20 41 20 28 0 33 -3 24 -12
-24 -24 -10 -29 81 -26 80 3 92 5 91 21 -2 24 9 21 21 -5 8 -19 21 -24 65 -29
30 -3 63 -2 74 4 32 16 111 80 109 87 -1 5 9 11 22 14 22 6 25 12 25 56 0 55
-17 69 -22 18 -3 -31 -6 -33 -50 -40 -26 -3 -52 -9 -58 -13 -6 -4 -17 -2 -25
5 -7 6 -31 10 -52 8 -31 -2 -39 -7 -41 -25 -4 -28 -32 -31 -32 -3 0 18 -7 20
-89 20 -80 0 -89 2 -94 20 -3 13 -10 18 -21 14 -19 -7 -22 -34 -3 -34 8 0 8
-3 -2 -9 -11 -7 -7 -10 15 -13 22 -2 29 -8 30 -25 1 -13 -3 -23 -7 -23 -5 0
-9 5 -9 11 0 6 -9 9 -20 6 -11 -3 -34 1 -50 10 -25 12 -29 19 -24 39 4 14 2
24 -5 24 -6 0 -11 5 -11 10 0 6 11 8 26 4 23 -6 25 -4 20 14 -4 11 -2 23 4 27
5 3 10 14 10 24 0 10 9 26 20 36 16 15 20 15 25 3 3 -8 1 -27 -5 -43 -8 -20
-8 -31 0 -39 15 -15 30 10 30 51 0 27 10 40 63 84 34 29 63 58 65 65 2 8 9 14
17 14 37 0 158 90 142 106 -16 16 -97 16 -121 0 -14 -9 -32 -16 -41 -16 -10 0
-15 -10 -15 -29 0 -39 -8 -43 -65 -32 -55 10 -75 25 -57 43 9 9 13 7 18 -5 4
-11 17 -17 35 -17 41 0 41 38 0 46 -27 6 -29 10 -34 63 -2 31 -3 57 -2 59 1 1
86 -2 189 -8 103 -6 192 -8 197 -4 27 16 -8 22 -168 27 -98 4 -192 9 -209 13
-18 3 -34 1 -38 -4z m-306 -134 c0 -13 -23 -5 -28 10 -2 7 2 10 12 6 9 -3 16
-11 16 -16z m307 -15 c-8 -9 -21 -13 -27 -11 -9 3 -8 9 4 21 10 9 22 14 28 11
6 -4 4 -12 -5 -21z m-337 -3 c0 -5 -4 -10 -10 -10 -5 0 -10 5 -10 10 0 6 5 10
10 10 6 0 10 -4 10 -10z m600 1 c0 -12 -29 -35 -36 -28 -11 10 5 37 21 37 8 0
15 -4 15 -9z m-60 -61 c0 -5 -4 -10 -10 -10 -5 0 -10 5 -10 10 0 6 5 10 10 10
6 0 10 -4 10 -10z m-270 -199 c0 -5 -7 -14 -15 -21 -12 -10 -15 -10 -15 2 0 8
3 18 7 21 9 10 23 9 23 -2z m-50 -57 c0 -8 -5 -12 -10 -9 -6 4 -8 11 -5 16 9
14 15 11 15 -7z m10 -78 c0 -26 -15 -43 -24 -28 -7 12 4 52 15 52 5 0 9 -11 9
-24z m205 4 c3 -5 -1 -10 -9 -10 -9 0 -16 5 -16 10 0 6 4 10 9 10 6 0 13 -4
16 -10z m285 1 c0 -12 -20 -25 -27 -18 -7 7 6 27 18 27 5 0 9 -4 9 -9z m-60
-16 c0 -8 5 -15 12 -15 6 0 1 -11 -12 -25 -18 -19 -26 -22 -37 -14 -13 11 -41
9 -75 -6 -10 -4 -18 -3 -18 3 0 5 14 15 30 22 17 7 30 19 30 26 0 8 4 14 9 14
5 0 7 -9 4 -20 -8 -29 16 -25 27 5 10 27 30 34 30 10z m-170 -10 c0 -8 -4 -15
-10 -15 -5 0 -10 7 -10 15 0 8 5 15 10 15 6 0 10 -7 10 -15z m-55 -23 c-10
-10 -65 -11 -65 -1 0 8 50 17 63 11 5 -2 5 -7 2 -10z"></path>
<path d="M3705 921 c-11 -5 -33 -6 -50 -4 -39 6 -85 -12 -85 -33 0 -12 -5 -14
-17 -9 -40 17 -73 18 -73 1 0 -11 9 -16 30 -16 17 0 42 -7 55 -16 32 -21 53
-12 57 23 3 26 7 28 48 30 25 1 54 3 64 5 29 4 33 -30 37 -310 l4 -247 -45 -3
c-28 -2 -50 -9 -58 -20 -10 -14 -16 -14 -30 -4 -33 23 -43 24 -57 6 -8 -11
-15 -24 -15 -30 0 -15 136 -12 152 3 6 7 17 13 24 13 6 0 22 9 35 19 24 19 24
19 16 152 -9 156 -9 156 80 154 l57 -2 4 -114 c1 -63 5 -120 8 -128 3 -9 14
-11 38 -7 20 4 37 2 41 -4 12 -20 25 -10 25 20 0 17 -5 30 -11 30 -7 0 -9 9
-5 24 5 19 1 25 -16 29 -20 6 -20 7 -5 30 19 30 35 147 19 147 -6 0 -10 12 -9
28 2 27 2 27 -63 27 -67 0 -110 -20 -110 -52 0 -11 -5 -11 -20 -3 -27 14 -25
22 10 42 40 23 39 43 -1 23 -45 -24 -47 -10 -4 29 26 25 36 40 31 52 -6 15
-10 14 -34 -9 -16 -15 -31 -27 -35 -27 -4 0 -7 31 -7 70 0 58 -3 71 -19 80
-23 12 -38 12 -66 1z m289 -247 c-5 -19 -4 -25 5 -20 6 4 11 3 11 -2 0 -6 -7
-12 -15 -16 -10 -3 -15 -19 -15 -42 0 -36 -12 -41 -15 -6 -1 9 -5 32 -9 50 -8
35 5 62 30 62 11 0 13 -7 8 -26z m-3 -207 c-1 -12 -15 -9 -19 4 -3 6 1 10 8 8
6 -3 11 -8 11 -12z m-11 -41 c0 -3 -4 -8 -10 -11 -5 -3 -10 -1 -10 4 0 6 5 11
10 11 6 0 10 -2 10 -4z"></path>
<path d="M6964 865 c-3 -19 -3 -46 0 -60 5 -21 0 -28 -36 -51 -24 -15 -88 -66
-143 -114 -55 -48 -113 -95 -128 -105 -15 -10 -24 -21 -20 -26 13 -12 64 2 71
20 12 28 184 180 255 224 25 16 27 22 27 82 0 70 -15 87 -26 30z"></path>
<path d="M3400 880 c0 -5 9 -10 20 -10 11 0 20 5 20 10 0 6 -9 10 -20 10 -11
0 -20 -4 -20 -10z"></path>
<path d="M5920 880 c0 -5 5 -10 10 -10 6 0 10 5 10 10 0 6 -4 10 -10 10 -5 0
-10 -4 -10 -10z"></path>
<path d="M4132 853 c2 -9 8 -18 15 -20 7 -3 9 3 6 16 -6 25 -26 28 -21 4z"></path>
<path d="M5872 859 c2 -6 8 -10 13 -10 5 0 11 4 13 10 2 6 -4 11 -13 11 -9 0
-15 -5 -13 -11z"></path>
<path d="M3313 848 c-13 -6 -23 -19 -23 -29 0 -23 -20 -35 -30 -19 -9 14 -44
-5 -93 -49 -46 -41 -57 -73 -57 -156 0 -68 2 -77 20 -82 11 -3 21 -10 21 -17
1 -6 2 -17 3 -25 2 -21 21 -24 36 -6 10 12 10 15 -4 15 -23 0 -41 50 -27 72
15 25 14 59 -3 72 -15 12 -5 56 13 56 13 0 24 -85 16 -131 -5 -31 -4 -39 8
-39 9 0 22 -3 30 -6 12 -4 14 5 10 59 -3 36 -3 89 1 118 6 46 14 61 55 104 26
28 56 55 67 62 19 12 19 12 -1 12 -11 0 -30 -5 -42 -11z m-73 -82 c0 -3 -4 -8
-10 -11 -5 -3 -10 -1 -10 4 0 6 5 11 10 11 6 0 10 -2 10 -4z m-37 -46 c-5 -20
-21 -36 -28 -28 -5 4 23 48 30 48 2 0 1 -9 -2 -20z"></path>
<path d="M5873 810 c-6 -23 -19 -26 -26 -7 -3 8 -11 3 -25 -13 -11 -14 -24
-22 -28 -18 -4 4 -1 14 6 23 7 9 9 19 5 23 -4 4 -10 1 -12 -6 -3 -6 -35 -32
-71 -56 -37 -25 -78 -53 -90 -64 l-24 -18 26 -31 c14 -17 26 -35 26 -41 0 -5
20 -31 45 -58 25 -26 45 -52 45 -58 0 -15 -82 -96 -97 -96 -7 0 -18 10 -24 23
-7 12 -28 41 -48 63 -20 23 -49 62 -64 88 -16 25 -33 46 -38 46 -5 0 -27 -18
-49 -40 -22 -22 -46 -37 -53 -34 -8 3 -20 -2 -27 -11 -7 -8 -20 -15 -30 -15
-10 0 -23 -7 -30 -15 -19 -23 -26 -19 -59 30 l-30 44 52 32 c29 18 47 34 40
36 -14 5 -95 -40 -113 -62 -7 -8 -18 -15 -24 -15 -7 0 -28 -16 -47 -36 -29
-31 -32 -37 -19 -47 9 -7 14 -19 12 -29 -3 -17 14 -32 38 -33 8 0 15 -5 15
-12 0 -17 37 -42 53 -35 11 4 11 6 1 13 -10 6 -9 12 5 28 24 27 39 27 31 1 -3
-11 -3 -20 1 -20 17 0 114 73 114 86 0 17 12 18 28 2 9 -9 12 -9 12 0 0 7 7
12 15 12 18 0 19 -12 3 -28 -9 -9 -8 -16 4 -29 9 -10 37 -49 63 -88 26 -38 49
-72 52 -74 2 -3 11 3 20 12 13 12 14 19 5 30 -7 8 -9 17 -5 20 10 11 43 8 43
-3 0 -24 30 -6 83 48 31 31 67 64 79 73 29 21 19 44 -53 123 l-53 58 22 19
c13 10 22 24 20 31 -3 15 23 58 35 58 5 0 6 -7 3 -16 -3 -9 7 -33 27 -59 17
-23 37 -51 44 -61 10 -17 13 -17 23 -4 9 13 13 12 30 -8 23 -27 16 -55 -11
-47 -24 8 -24 -7 -1 -29 11 -9 25 -34 32 -57 16 -47 25 -55 46 -38 12 10 12
14 2 20 -10 6 -8 9 6 9 15 0 17 -5 11 -27 -3 -16 -13 -35 -21 -44 -8 -8 -14
-22 -14 -29 0 -8 -10 -24 -22 -37 -18 -19 -20 -27 -11 -42 9 -15 7 -23 -13
-44 -21 -23 -31 -47 -21 -47 15 0 67 34 91 59 25 26 26 30 11 38 -15 9 -12 13
19 31 25 15 36 28 36 45 0 13 11 34 25 47 31 29 31 43 1 106 -41 85 -56 122
-56 133 0 6 -9 28 -20 48 -11 21 -20 43 -20 50 0 22 -32 93 -42 93 -5 0 -12
-9 -15 -20z m10 -47 c4 -3 1 -13 -6 -21 -10 -13 -8 -14 11 -8 17 6 24 3 31
-16 11 -28 6 -35 -13 -19 -9 8 -16 8 -20 2 -4 -5 -2 -12 4 -16 5 -3 10 -15 10
-27 0 -11 9 -31 20 -45 11 -14 17 -30 13 -36 -7 -12 -43 28 -43 50 0 10 -6 12
-20 8 -21 -7 -28 9 -10 20 8 5 7 11 -1 21 -6 7 -9 20 -6 28 3 7 1 18 -5 24 -8
8 -8 16 2 27 13 16 23 19 33 8z m-89 -33 c27 -10 37 -50 13 -50 -22 0 -28 12
-14 28 10 13 9 15 -6 9 -22 -8 -40 0 -32 14 8 11 8 11 39 -1z m-314 -179 c-6
-12 -5 -22 3 -30 9 -9 8 -14 -3 -21 -32 -20 -43 -12 -35 27 7 38 22 56 37 47
4 -3 4 -13 -2 -23z m-276 -20 c10 -11 16 -28 13 -38 -3 -15 -6 -13 -16 11 -8
21 -16 27 -31 23 -20 -5 -26 3 -13 16 12 12 29 7 47 -12z m746 9 c0 -5 9 -18
21 -29 14 -13 17 -21 9 -26 -11 -7 -60 38 -60 56 0 5 7 9 15 9 8 0 15 -4 15
-10z m-810 -34 c0 -3 -4 -8 -10 -11 -5 -3 -10 -1 -10 4 0 6 5 11 10 11 6 0 10
-2 10 -4z m47 -32 c-9 -9 -28 6 -21 18 4 6 10 6 17 -1 6 -6 8 -13 4 -17z m383
-38 c14 -26 32 -51 40 -56 8 -5 11 -12 7 -17 -4 -4 -16 -2 -27 4 -15 10 -19 9
-24 -4 -5 -12 -9 -14 -18 -5 -9 9 -9 15 -1 23 9 9 6 17 -13 31 -32 26 -32 86
0 75 6 -2 22 -25 36 -51z m436 -3 c-11 -12 -27 13 -20 32 7 17 8 17 17 -3 6
-12 7 -25 3 -29z m-756 27 c0 -5 -4 -10 -10 -10 -5 0 -10 5 -10 10 0 6 5 10
10 10 6 0 10 -4 10 -10z m75 0 c-3 -5 -10 -10 -16 -10 -5 0 -9 5 -9 10 0 6 7
10 16 10 8 0 12 -4 9 -10z"></path>
<path d="M1523 812 c-29 -9 -103 -73 -103 -89 0 -16 25 -17 53 -1 12 7 34 13
49 14 38 2 60 12 53 23 -6 11 -44 9 -64 -3 -19 -12 -27 3 -9 20 19 19 88 10
88 -13 0 -17 61 -15 67 3 9 27 -87 60 -134 46z"></path>
<path d="M3403 749 c-22 -14 -36 -33 -43 -59 -13 -47 -2 -146 16 -161 8 -6 14
-17 14 -24 0 -18 67 -58 85 -51 23 9 18 26 -8 26 -27 0 -46 19 -71 69 -36 75
-24 173 21 179 17 3 21 0 17 -12 -4 -11 0 -16 12 -16 10 0 30 -11 44 -25 l27
-26 26 21 c15 12 31 18 37 15 15 -9 3 -24 -35 -39 -33 -14 -33 -15 -37 -90 -3
-68 -1 -76 15 -76 14 0 17 5 12 21 -5 16 -3 20 6 16 8 -2 13 -10 12 -16 -4
-16 16 -13 64 10 33 16 43 26 43 45 0 13 -4 24 -10 24 -5 0 -10 -7 -10 -15 0
-17 -46 -42 -57 -31 -4 4 3 16 17 26 21 16 22 20 10 36 -12 13 -12 18 -2 22
25 8 42 34 42 66 0 39 -14 53 -59 62 -17 4 -34 11 -37 15 -3 5 -21 9 -41 9
-33 0 -35 -1 -29 -27 l6 -28 -21 28 c-25 32 -25 32 -66 6z m215 -31 c14 -14
16 -68 2 -68 -5 0 -10 6 -10 13 0 8 -9 22 -19 31 -15 14 -24 15 -40 7 -31 -17
-42 -13 -24 9 20 22 72 27 91 8z m-48 -143 c0 -14 -4 -25 -10 -25 -5 0 -10 11
-10 25 0 14 5 25 10 25 6 0 10 -11 10 -25z"></path>
<path d="M2256 742 c-8 -14 19 -37 47 -39 35 -2 35 13 -3 32 -33 17 -37 18
-44 7z"></path>
<path d="M2188 733 c-14 -2 -32 -11 -38 -19 -7 -8 -20 -14 -30 -14 -23 0 -70
-55 -70 -82 0 -50 104 -102 191 -96 36 2 44 7 49 26 5 22 24 27 26 7 1 -5 2
-14 3 -19 2 -20 51 39 56 68 10 59 -25 127 -38 75 -5 -17 -9 -20 -19 -12 -28
23 -78 17 -78 -9 0 -6 3 -9 6 -5 4 3 14 -3 23 -15 15 -18 21 -19 40 -9 20 11
22 10 19 -6 -2 -13 -12 -18 -33 -18 -25 0 -30 -4 -30 -23 -1 -35 -23 -42 -93
-27 -77 16 -94 29 -90 69 3 27 7 31 36 34 20 2 47 -5 68 -17 43 -25 57 -26 52
-4 -2 9 -14 20 -28 23 -28 7 -41 40 -16 40 9 0 16 -7 16 -16 0 -9 6 -14 12
-12 16 6 20 69 4 67 -6 -1 -23 -4 -38 -6z"></path>
<path d="M4140 705 c0 -8 8 -15 18 -15 10 0 13 -3 6 -8 -13 -8 -34 -46 -34
-61 0 -21 19 -11 22 12 2 17 9 21 29 19 30 -4 79 32 64 46 -5 5 -31 12 -57 16
-39 4 -48 3 -48 -9z"></path>
<path d="M2469 693 c-1 -5 -2 -41 -3 -80 -1 -63 1 -72 15 -68 10 4 18 -1 21
-12 3 -10 15 -19 26 -20 19 -2 22 4 24 38 1 21 2 47 2 56 1 9 -5 18 -11 21 -8
2 -13 -6 -13 -22 0 -14 -4 -26 -10 -26 -5 0 -10 15 -10 33 0 18 -5 38 -11 44
-8 8 -8 13 0 17 6 4 11 11 11 17 0 11 -40 13 -41 2z"></path>
<path d="M2765 678 c-7 -18 -8 -46 -7 -96 2 -30 7 -44 20 -49 9 -4 20 -10 23
-15 3 -5 13 -6 23 -2 13 5 16 13 12 30 -8 31 5 30 34 -1 l23 -25 -21 0 c-12 0
-22 -5 -22 -11 0 -6 11 -8 28 -4 21 4 33 1 46 -14 21 -23 4 -40 -21 -19 -14
11 -15 10 -9 -10 10 -30 -8 -28 -32 3 -24 30 -42 32 -42 6 0 -11 -5 -21 -10
-23 -6 -2 0 -22 14 -48 14 -25 28 -52 32 -60 3 -8 10 -25 15 -37 9 -24 59 -34
59 -12 0 6 9 9 20 6 11 -3 20 -1 20 4 0 5 -4 9 -10 9 -5 0 -10 7 -10 15 0 18
12 19 27 4 16 -16 162 117 156 141 -2 9 -16 30 -30 46 -14 16 -32 43 -41 59
-13 24 -17 26 -20 13 -2 -10 6 -30 17 -44 12 -15 21 -32 21 -39 0 -7 7 -18 15
-25 18 -15 3 -40 -25 -40 -10 0 -23 -7 -30 -15 -7 -9 -21 -13 -31 -10 -12 4
-22 -1 -30 -17 -13 -25 -38 -47 -53 -48 -5 0 -1 9 9 20 18 20 15 24 -17 21
-13 -2 -18 5 -18 23 0 28 26 36 47 15 13 -13 33 -4 33 16 0 7 -18 36 -40 64
-22 28 -45 62 -50 76 -5 13 -21 42 -35 65 -20 32 -31 40 -55 40 -17 0 -33 -6
-35 -12z m70 -47 c7 -12 -12 -24 -25 -16 -11 7 -4 25 10 25 5 0 11 -4 15 -9z
m35 -220 c0 -11 3 -26 6 -35 4 -11 1 -16 -10 -16 -12 0 -16 10 -16 35 0 19 5
35 10 35 6 0 10 -9 10 -19z"></path>
<path d="M1264 628 c-3 -4 -2 -19 2 -33 4 -15 2 -25 -5 -25 -6 0 -11 -7 -11
-16 0 -11 -6 -15 -20 -11 -26 7 -38 -13 -17 -28 10 -7 17 -17 17 -24 0 -6 5
-11 11 -11 6 0 8 7 5 16 -5 14 -1 16 23 11 38 -8 44 2 46 75 2 55 1 57 -22 56
-14 -2 -27 -6 -29 -10z"></path>
<path d="M6146 601 c-4 -5 -2 -12 3 -15 5 -4 12 -2 15 3 4 5 2 12 -3 15 -5 4
-12 2 -15 -3z"></path>
<path d="M6925 582 c-6 -5 -42 -14 -80 -21 -71 -12 -104 -25 -93 -36 8 -8 137
15 169 31 28 14 49 4 49 -23 0 -21 18 -15 25 8 11 33 -44 64 -70 41z"></path>
<path d="M6228 515 c-30 -49 -40 -75 -29 -75 13 0 63 89 58 103 -2 7 -15 -6
-29 -28z"></path>
<path d="M2434 506 c-16 -12 -17 -17 -6 -28 11 -11 16 -10 28 6 26 36 14 48
-22 22z"></path>
<path d="M570 490 c0 -11 5 -20 10 -20 6 0 10 9 10 20 0 11 -4 20 -10 20 -5 0
-10 -9 -10 -20z"></path>
<path d="M2760 486 c0 -27 15 -42 25 -26 8 13 -3 50 -16 50 -5 0 -9 -11 -9
-24z"></path>
<path d="M1207 474 c-11 -11 -8 -62 4 -69 6 -4 17 1 24 11 14 18 14 18 15 -4
0 -13 -4 -32 -10 -42 -8 -15 -2 -25 36 -59 26 -23 51 -41 56 -41 6 0 19 11 29
24 13 17 25 22 40 19 19 -5 20 -4 9 16 -9 18 -14 20 -26 10 -11 -9 -14 -7 -14
14 0 14 -4 29 -10 32 -6 4 -10 -8 -10 -29 0 -35 -13 -48 -23 -23 -4 9 -8 8
-16 -3 -9 -13 -12 -12 -25 5 -25 32 -24 34 33 51 11 3 11 7 1 19 -8 10 -21 13
-33 9 -12 -4 -17 -2 -13 5 4 5 -7 17 -23 25 -16 9 -31 20 -33 26 -2 6 -7 8
-11 4z"></path>
<path d="M3240 460 c0 -5 -7 -7 -15 -4 -17 7 -21 -21 -5 -31 15 -9 12 -25 -4
-25 -8 0 -17 -6 -20 -12 -3 -9 -11 -5 -26 11 -25 29 -34 23 -21 -11 10 -27 43
-54 100 -81 34 -17 59 -14 31 3 -11 7 -12 12 -3 21 13 13 37 3 28 -12 -20 -31
124 -35 183 -5 30 15 32 15 42 -4 12 -22 32 -27 28 -7 -4 23 14 59 27 53 8 -3
19 2 25 10 14 15 42 19 38 5 -2 -5 2 -9 7 -10 8 -1 12 45 6 67 -1 2 -15 -8
-32 -22 -17 -14 -39 -26 -50 -26 -11 0 -27 -4 -37 -9 -9 -5 -37 -14 -60 -21
-36 -9 -47 -9 -60 3 -10 7 -33 20 -52 27 -19 7 -39 17 -44 22 -16 13 -26 9
-20 -7 8 -20 -3 -19 -37 6 -31 22 -40 45 -13 35 12 -5 15 -2 10 10 -3 8 -6 18
-6 20 0 2 -4 4 -10 4 -5 0 -10 -4 -10 -10z m-10 -102 c0 -16 -3 -19 -11 -11
-6 6 -8 16 -5 22 11 17 16 13 16 -11z m50 2 c0 -5 -4 -10 -10 -10 -5 0 -10 5
-10 10 0 6 5 10 10 10 6 0 10 -4 10 -10z m133 -17 c4 -3 2 -12 -4 -19 -8 -10
-15 -11 -30 -1 -10 6 -19 15 -19 19 0 10 44 11 53 1z"></path>
<path d="M4915 458 c-11 -6 -37 -28 -58 -48 -29 -27 -39 -45 -40 -70 -1 -19 3
-35 8 -36 23 -2 71 -17 82 -26 7 -6 25 -2 49 12 21 11 44 20 49 20 19 0 75 65
75 87 0 35 -55 73 -103 73 -23 0 -51 -6 -62 -12z m123 -31 c37 -34 27 -66 -28
-82 -14 -4 -33 -14 -42 -22 -18 -16 -38 -10 -38 13 0 8 -5 22 -11 32 -15 24 4
70 33 82 29 11 57 4 86 -23z m-156 -39 c-5 -7 -12 -24 -14 -37 -5 -37 -28 -39
-28 -2 0 19 8 35 22 45 24 17 37 13 20 -6z m32 -46 c2 -4 1 -14 -4 -22 -7 -11
-12 -12 -21 -3 -6 6 -8 16 -5 22 8 13 23 14 30 3z"></path>
<path d="M4128 440 c-4 -8 -9 -31 -10 -50 -2 -28 -7 -35 -25 -35 -11 0 -25 -3
-29 -7 -11 -12 -54 -10 -54 2 0 12 -55 -14 -65 -31 -4 -6 -2 -16 4 -22 7 -7
12 -6 17 6 9 24 27 21 19 -3 -6 -18 -3 -19 27 -13 38 7 73 24 106 52 19 17 23
28 20 68 -2 28 -6 42 -10 33z"></path>
<path d="M2740 385 c-7 -8 -9 -15 -4 -15 4 0 -3 -11 -16 -25 -13 -14 -19 -25
-14 -25 6 0 23 14 39 30 20 21 26 33 19 40 -8 8 -15 6 -24 -5z"></path>
<path d="M6141 348 c-11 -18 -26 -42 -33 -53 -7 -11 -16 -22 -19 -25 -15 -12
-29 -50 -19 -50 6 0 13 8 17 18 3 9 11 24 18 32 19 23 68 110 62 110 -3 0 -14
-15 -26 -32z"></path>
<path d="M3940 360 c0 -5 7 -10 15 -10 8 0 15 5 15 10 0 6 -7 10 -15 10 -8 0
-15 -4 -15 -10z"></path>
<path d="M5840 242 c-46 -55 -80 -101 -80 -110 0 -6 7 -15 17 -20 10 -6 14
-16 9 -27 -5 -14 -9 -15 -21 -5 -16 13 -35 6 -35 -14 0 -8 16 -17 38 -21 20
-4 45 -14 55 -22 14 -14 22 -14 45 -4 76 35 148 85 162 112 19 35 1 36 -26 1
-20 -25 -29 -30 -43 -22 -43 23 -106 39 -116 30 -30 -25 -34 46 -5 80 11 13
20 27 20 32 0 12 -4 10 -20 -10z m5 -132 c4 -6 11 -8 16 -5 14 9 51 -5 46 -18
-2 -6 -15 -14 -30 -18 -21 -6 -29 -2 -42 17 -8 13 -15 26 -15 29 0 9 19 5 25
-5z m-25 -40 c0 -5 -4 -10 -10 -10 -5 0 -10 5 -10 10 0 6 5 10 10 10 6 0 10
-4 10 -10z"></path>
</g>
</svg>